<?xml version="1.0" encoding="utf-8"?>
<!-- Generator: Adobe Illustrator 27.2.0, SVG Export Plug-In . SVG Version: 6.00 Build 0)  -->
<svg version="1.1" id="Layer_1" xmlns="http://www.w3.org/2000/svg" xmlns:xlink="http://www.w3.org/1999/xlink" x="0px" y="0px"
	 viewBox="0 0 73.8 73.8" style="enable-background:new 0 0 73.8 73.8;" xml:space="preserve">
<style type="text/css">
	.st0{fill:#C38C63;}
	.st1{fill:#906A47;}
</style>
<g>
	<path class="st0" d="M39.2,8.6c-0.2-0.1-1.5-1.4-0.3-3.1c-0.5,0.4-1.2,0.7-2,0.7s-1.5-0.3-2-0.8c0.3,0.6,0.7,1.8-0.4,3.2h0
		c0.8-0.1,1.6-0.1,2.5-0.1C37.7,8.5,38.4,8.5,39.2,8.6z"/>
	<path class="st1" d="M38.8,5.5C39.5,4.9,40,4.1,40,3.1C40,1.4,38.6,0,36.9,0s-3.1,1.4-3.1,3.1c0,0.9,0.4,1.8,1.1,2.3
		c0.5,0.5,1.3,0.8,2,0.8S38.3,5.9,38.8,5.5L38.8,5.5z"/>
	<path class="st0" d="M8.6,34.7c-0.1,0.2-1.4,1.5-3.1,0.3c0.4,0.5,0.7,1.2,0.7,2s-0.3,1.5-0.8,2c0.6-0.3,1.8-0.7,3.2,0.4v0
		c-0.1-0.8-0.1-1.6-0.1-2.5C8.5,36.1,8.6,35.4,8.6,34.7L8.6,34.7z"/>
	<path class="st1" d="M5.5,35c-0.6-0.7-1.4-1.1-2.4-1.1C1.4,33.9,0,35.3,0,37s1.4,3.1,3.1,3.1c0.9,0,1.8-0.4,2.3-1.1
		c0.5-0.5,0.8-1.3,0.8-2S5.9,35.6,5.5,35L5.5,35z"/>
	<path class="st0" d="M34.7,65.2c0.2,0.1,1.5,1.4,0.3,3.1c0.5-0.4,1.2-0.7,2-0.7s1.5,0.3,2,0.8c-0.3-0.6-0.7-1.8,0.4-3.2h0
		c-0.8,0.1-1.6,0.1-2.5,0.1C36.1,65.3,35.4,65.3,34.7,65.2L34.7,65.2z"/>
	<path class="st1" d="M35,68.3c-0.7,0.6-1.1,1.4-1.1,2.4c0,1.7,1.4,3.1,3.1,3.1s3.1-1.4,3.1-3.1c0-0.9-0.4-1.8-1.1-2.3
		c-0.5-0.5-1.3-0.8-2-0.8S35.6,67.9,35,68.3L35,68.3z"/>
	<path class="st0" d="M68.4,34.8c-0.6,0.3-1.8,0.7-3.2-0.4v0c0.1,0.8,0.1,1.6,0.1,2.5c0,0.8,0,1.5-0.1,2.2c0.1-0.2,1.4-1.5,3.1-0.3
		c-0.4-0.5-0.7-1.2-0.7-2S67.9,35.4,68.4,34.8z"/>
	<path class="st1" d="M70.7,33.8c-0.9,0-1.8,0.4-2.3,1.1c-0.5,0.5-0.8,1.3-0.8,2s0.3,1.4,0.7,2c0.6,0.7,1.4,1.1,2.4,1.1
		c1.7,0,3.1-1.4,3.1-3.1S72.4,33.7,70.7,33.8L70.7,33.8z"/>
	<path class="st0" d="M18.5,15.3c-0.2,0-2.1,0.1-2.5-1.9c-0.1,0.7-0.4,1.4-0.9,1.9c-0.5,0.6-1.3,0.8-2,0.9c0.6,0.2,1.7,0.8,2,2.5
		C16.2,17.4,17.3,16.3,18.5,15.3L18.5,15.3z"/>
	<path class="st1" d="M16,13.3c0.1-0.9-0.2-1.8-0.9-2.5c-1.2-1.2-3.2-1.2-4.4,0c-1.2,1.2-1.2,3.2,0,4.4c0.7,0.7,1.5,1,2.4,0.9
		c0.7,0,1.4-0.3,2-0.9C15.7,14.7,16,14,16,13.3z"/>
	<path class="st0" d="M15.3,55.3c0,0.2,0.1,2.1-2,2.5c0.7,0.1,1.4,0.4,1.9,0.9c0.5,0.5,0.9,1.3,0.9,2c0.2-0.6,0.8-1.7,2.5-2l0,0
		C17.4,57.6,16.3,56.5,15.3,55.3L15.3,55.3z"/>
	<path class="st1" d="M13.4,57.8c-0.9-0.1-1.8,0.2-2.5,0.9c-1.2,1.2-1.2,3.2,0,4.4s3.2,1.2,4.4,0c0.7-0.7,1-1.5,0.9-2.4
		c0-0.7-0.4-1.4-0.9-2C14.7,58.2,14,57.9,13.4,57.8L13.4,57.8z"/>
	<path class="st0" d="M55.3,58.5c0.2,0,2.1-0.1,2.4,2c0.1-0.7,0.4-1.4,0.9-1.9c0.6-0.5,1.3-0.8,2-0.9c-0.6-0.2-1.7-0.8-2-2.5l0,0
		C57.7,56.4,56.5,57.5,55.3,58.5L55.3,58.5z"/>
	<path class="st1" d="M57.8,60.5c-0.1,0.9,0.2,1.8,0.9,2.5c1.2,1.2,3.2,1.2,4.4,0c1.2-1.2,1.2-3.2,0-4.4c-0.7-0.7-1.5-1-2.4-0.9
		c-0.7,0-1.4,0.3-2,0.9C58.1,59.1,57.9,59.8,57.8,60.5L57.8,60.5z"/>
	<path class="st0" d="M58.5,18.5c0-0.2-0.1-2.1,2-2.5c-0.7-0.1-1.4-0.4-1.9-0.9c-0.6-0.6-0.8-1.3-0.9-2c-0.2,0.6-0.8,1.7-2.5,2
		C56.4,16.2,57.5,17.3,58.5,18.5L58.5,18.5z"/>
	<path class="st1" d="M60.5,16c0.9,0.1,1.8-0.2,2.5-0.9c1.2-1.2,1.2-3.2,0-4.4c-1.2-1.2-3.2-1.2-4.4,0c-0.7,0.7-1,1.5-0.9,2.4
		c0.1,0.7,0.3,1.4,0.9,2C59.1,15.7,59.8,16,60.5,16L60.5,16z"/>
	<path class="st0" d="M65.2,34.5c-0.5-6.1-2.9-11.6-6.7-16c-1-1.2-2.1-2.3-3.3-3.3c-4.4-3.7-9.9-6.1-16-6.6
		c-0.7-0.1-1.5-0.1-2.2-0.1c-0.8,0-1.6,0-2.5,0.1c-6.1,0.5-11.6,2.9-16,6.7c-1.2,1-2.3,2.1-3.3,3.3c-3.7,4.4-6.1,9.9-6.6,16
		c-0.1,0.7-0.1,1.5-0.1,2.2c0,0.8,0,1.6,0.1,2.5c0.5,6.1,3,11.6,6.7,16c1,1.2,2.1,2.3,3.3,3.3c4.4,3.7,9.9,6.1,16,6.6
		c0.7,0.1,1.5,0.1,2.2,0.1c0.8,0,1.6,0,2.5-0.1c6.1-0.5,11.6-3,16-6.7c1.2-1,2.3-2.1,3.3-3.3c3.7-4.4,6.1-9.9,6.5-16
		c0.1-0.7,0.1-1.5,0.1-2.2C65.3,36.1,65.3,35.3,65.2,34.5L65.2,34.5z M36.9,63.6c-14.7,0-26.6-11.9-26.6-26.7s11.9-26.7,26.6-26.7
		s26.7,11.9,26.7,26.7S51.6,63.6,36.9,63.6z"/>
	<path class="st1" d="M36.9,10.3c-14.7,0-26.6,11.9-26.6,26.7s11.9,26.6,26.6,26.6s26.6-11.9,26.6-26.7S51.6,10.3,36.9,10.3z
		 M36.9,60.5c-13,0-23.6-10.6-23.6-23.6s10.6-23.6,23.6-23.6s23.6,10.6,23.6,23.6S50,60.5,36.9,60.5z"/>
</g>
</svg>
