<?xml version="1.0" encoding="utf-8"?>
<!-- Generator: Adobe Illustrator 27.2.0, SVG Export Plug-In . SVG Version: 6.00 Build 0)  -->
<svg version="1.1" id="Layer_1" xmlns="http://www.w3.org/2000/svg" xmlns:xlink="http://www.w3.org/1999/xlink" x="0px" y="0px"
	 viewBox="0 0 73.8 73.8" style="enable-background:new 0 0 73.8 73.8;" xml:space="preserve">
<style type="text/css">
	.st0{fill:#856547;}
	.st1{fill:#D9A576;}
</style>
<g>
	<g>
		<path class="st0" d="M43.8,53.8c-7.8-1.7-12.5-5.8-20.4-6c-1.5,0-2.9,0.2-4.2,0.4c0,0,0,0.1,0,0.1c0,0,0.3,1,0.3,1
			c0.1,0.2,0.2,0.5,0.2,0.7c0,0.1,0.1,0.1,0.1,0.1c0,0,0.1,0,0.1,0c0.6,0.2,1.1,0.4,1.7,0.6c2.9,1,5.8,1.8,8.7,2.6
			c1.3,0.3,2.7,0.7,4,1c0.9,0.2,1.7,0.4,2.6,0.5c0.6,0.1,1.2,0.2,1.8,0.3c0.4,0.1,0.8,0.1,1.2,0.2c0.4,0.1,0.8,0.1,1.2,0.2
			c0.3,0,0.7,0.1,1,0.1c0.3,0,0.6,0.1,0.9,0.1c0.4,0,0.8,0.1,1.2,0.1c0.5,0,1,0,1.5,0.1c0.3,0,0.6,0,0.8-0.2c0.4-0.2,0.7-0.4,1-0.7
			c0.3-0.2,0.5-0.5,0.7-0.7C47,54.3,45.4,54.1,43.8,53.8L43.8,53.8z"/>
		<g>
			<path class="st0" d="M23.5,37.3c0-0.2,0-0.3,0-0.5c0,0,0-0.1,0-0.1c-0.1,0-0.2,0-0.4,0c0,0,0,0.2,0,0.6L23.5,37.3L23.5,37.3z"/>
			<path class="st0" d="M62.1,36c-0.1,0-0.1,0.1-0.2,0.1c-0.8,0.5-1.6,1-2.4,1.5c-1.5,0.9-2.9,1.8-4.4,2.7c-1.2,0.8-2.5,1.5-3.7,2.3
				c-0.1,0.1-0.2,0.1-0.3,0.1c-0.4,0-0.8,0-1.2,0c-0.6,0-1.2,0-1.8,0c-0.6,0-1.2,0-1.8,0c-0.2,0-0.3,0-0.4,0c-0.3,0-0.5,0-0.8,0.1
				c-0.3,0-0.7,0.1-1,0.1c-0.3,0-0.6,0-0.8,0.1c0,0-0.1,0-0.1,0c0-0.1,0-0.1,0-0.2c0-0.9,0-1.8,0-2.7c0-1.4,0-2.7-0.1-4.1
				c0-1.3,0-2.5-0.1-3.8c0-0.4,0-0.8,0-1.1c0,0,0-0.1,0-0.2c0,0,0,0,0.1,0c0.1,0,0.2,0,0.3,0c0.1,0,0.3-0.1,0.4-0.1
				c0,0,0.1,0,0.1-0.1c0,0,0-0.1,0-0.1c0.1,0,0.2,0,0.3-0.1c0.1,0,0.2-0.1,0.2-0.1c0.2-0.1,0.2-0.2,0-0.3c-0.1,0-0.1-0.1-0.2-0.1
				c-0.1,0-0.3-0.1-0.4-0.1c-0.2,0-0.5,0-0.7-0.1c-0.1,0-0.2,0-0.2,0c0,0,0-0.1,0-0.1c0-0.5,0-0.9,0-1.4c0-1.8-0.1-3.5-0.1-5.3
				c0-1.4,0-2.9-0.1-4.3c0,0,0-0.1,0-0.2c0,0,0.1,0,0.1,0c0.2,0,0.4,0,0.6-0.1c0.1,0,0.2-0.1,0.3-0.2c0.1,0,0.1-0.1,0-0.2
				c0,0,0,0,0,0c0.1-0.1,0.2-0.1,0.3-0.1c0.1-0.1,0.1-0.2,0-0.2c-0.1-0.1-0.3-0.1-0.5-0.2c-0.2,0-0.5-0.1-0.8-0.1
				c-0.1,0-0.2,0-0.3,0c0,0,0-0.1,0-0.1c0-0.3,0-0.6,0-0.9c0-1,0-2.1,0-3.1c0-0.7,0-1.4,0-2.1c0-0.2,0-0.4,0-0.6c0-0.1,0-0.1,0-0.2
				c0.1-0.1,0.1-0.2,0.2-0.4c0.1-0.2,0.2-0.4,0.3-0.6c0.1-0.1,0.2-0.2,0.2-0.2c0.1-0.1,0.3-0.1,0.4-0.1c0.1,0,0.2,0.1,0.3,0.1
				C44.2,9,44.3,9,44.5,9.1c0.2,0.1,0.5,0.3,0.7,0.4c0.2,0.1,0.5,0.2,0.8,0.2c0.3,0.1,0.6,0,0.9-0.1c0.1-0.1,0.2-0.1,0.3-0.2
				c0.1-0.1,0.3-0.2,0.4-0.3c0.3-0.2,0.6-0.5,0.9-0.7C48.7,8.2,48.8,8.1,49,8c0.2-0.1,0.4-0.1,0.6-0.1c0.2,0,0.3,0.1,0.5,0.1
				c0.2,0.1,0.4,0.2,0.6,0.3s0.3,0.3,0.5,0.4c0,0,0,0,0.1,0.1c0,0,0,0,0,0c0,0,0,0,0,0c-0.1-0.3-0.2-0.6-0.5-0.8
				c-0.1-0.1-0.2-0.2-0.3-0.2c0,0,0-0.1-0.1-0.1c0.1,0,0.1,0,0.1,0c0.1,0,0.2,0.1,0.3,0.1c0.2,0.1,0.3,0.1,0.5,0.1
				c0,0,0.1,0,0.1-0.1c-0.3-0.3-0.7-0.6-1-0.7C50.3,7,50.2,7,50.1,6.9c-0.2-0.1-0.4-0.1-0.7-0.1c-0.3,0-0.6,0.1-0.8,0.2
				c-0.2,0.1-0.4,0.2-0.5,0.4c-0.2,0.1-0.3,0.2-0.5,0.3c-0.2,0.2-0.4,0.3-0.7,0.4c-0.3,0.1-0.7,0.2-1,0.1c-0.2-0.1-0.4-0.1-0.6-0.2
				c-0.2-0.1-0.4-0.2-0.6-0.3c-0.1-0.1-0.3-0.2-0.4-0.2c-0.1-0.1-0.3-0.1-0.4-0.2c-0.2,0-0.4,0-0.6,0.1c-0.2,0.1-0.3,0.2-0.4,0.4
				c-0.1,0.1-0.1,0.2-0.2,0.3c0,0,0,0.1-0.1,0c0-0.2,0-0.4,0-0.6c-0.1,0-0.2,0-0.2,0c0,0.1,0,0.1,0,0.2c0,2.5,0,5-0.1,7.6
				c0,0.6,0,1.2,0,1.8c0,0.1,0,0.1,0,0.2c0,0-0.1,0-0.1,0c-0.2,0-0.3,0-0.5,0c-0.2,0-0.4,0-0.6,0.1c-0.1,0-0.3,0.1-0.4,0.2
				c-0.1,0-0.1,0.1,0,0.2c0.1,0.1,0.2,0.1,0.3,0.2c0.1,0,0.1,0,0.2,0c-0.1,0.1,0,0.2,0.1,0.2c0.1,0.1,0.2,0.1,0.3,0.1
				c0.2,0,0.3,0,0.5,0.1c0.1,0,0.2,0,0.3,0c0,0.1,0,0.1,0,0.2c0,2.9,0,5.8-0.1,8.7c0,0.7,0,1.4,0,2.1c0,0.1,0,0.1,0,0.2
				c-0.1,0-0.1,0-0.2,0c-0.2,0-0.3,0-0.5,0c-0.2,0-0.4,0.1-0.6,0.1c-0.1,0-0.2,0.1-0.2,0.1c-0.1,0.1-0.1,0.2,0,0.3
				c0.1,0.1,0.2,0.1,0.3,0.1c0.1,0,0.3,0.1,0.4,0.1c0,0.1,0.1,0.2,0.2,0.2c0.1,0,0.2,0.1,0.4,0.1c0.1,0,0.1,0,0.2,0c0,0,0,0,0,0.1
				c0,4-0.1,8.1-0.1,12.1c0,0,0,0,0,0.1c0,0-0.1,0-0.2,0c-0.7,0.1-1.3,0.2-2,0.4c-1.6,0.3-3.2,0.7-4.8,1c-0.6,0.1-1.2,0.2-1.8,0.3
				c-0.5,0.1-1,0.2-1.5,0.2c-0.2,0-0.4,0-0.6,0.1c0,0-0.1,0-0.1,0c0-3.8,0-7.7,0-11.6c0,0,0,0,0-0.1c0,0,0.1,0,0.1,0
				c0.1,0,0.2,0,0.3,0c0.1,0,0.2,0,0.3-0.1c0.1-0.1,0.1-0.1,0-0.2c0,0,0,0,0,0c0.2,0,0.4,0,0.5-0.2c0-0.1-0.1-0.1-0.1-0.1
				c-0.1,0-0.2-0.1-0.3-0.1c-0.2,0-0.4,0-0.6-0.1c0,0-0.1,0-0.2,0c0,0,0,0,0,0c0,0,0,0,0-0.1c0-3,0-5.9,0-8.9c0,0,0,0,0,0
				c0,0,0,0,0,0c0,0,0.1,0,0.2,0c0.2,0,0.3-0.1,0.4-0.1c0.1,0,0.2-0.1,0.2-0.2c0,0,0-0.1,0-0.1c0.1,0,0.1,0,0.2,0
				c0.1,0,0.2-0.1,0.2-0.1c0.1-0.1,0.1-0.1,0-0.2c0,0-0.1-0.1-0.1-0.1c-0.1-0.1-0.3-0.1-0.4-0.1c-0.1,0-0.3,0-0.4,0
				c-0.1,0-0.2,0-0.2,0c0,0,0,0,0,0c0,0,0,0,0,0c0-2.6,0-5.3,0-7.9c0,0,0,0,0,0c0,0,0,0,0,0c0.1,0,0.1-0.1,0.2-0.1
				c0.1-0.1,0.1-0.2,0.2-0.2c0.2-0.2,0.5-0.3,0.7-0.2c0.2,0.1,0.4,0.1,0.5,0.2c0.3,0.1,0.7,0.2,1,0.2c0.2,0,0.4,0,0.6,0
				c0.2-0.1,0.4-0.1,0.6-0.2c0.3-0.1,0.5-0.2,0.8-0.4c0.1-0.1,0.2-0.1,0.4-0.1c0.2-0.1,0.4-0.1,0.7-0.1c0.2,0,0.5,0.1,0.7,0.2
				c0.2,0.1,0.3,0.1,0.5,0.2c0,0,0,0,0.1,0c-0.1-0.2-0.3-0.3-0.5-0.4c0-0.1,0-0.1,0.1-0.1c0.2,0,0.3,0.1,0.5,0.1c0,0,0.1,0,0.1,0
				c0,0,0,0-0.1,0c-0.3-0.1-0.6-0.3-1-0.3c-0.4-0.1-0.8-0.1-1.2,0c-0.2,0.1-0.4,0.1-0.5,0.2c-0.2,0.1-0.3,0.1-0.5,0.2
				c-0.5,0.2-0.9,0.2-1.4,0.1c-0.2-0.1-0.5-0.1-0.7-0.2c-0.2-0.1-0.3-0.1-0.5-0.1c-0.1,0-0.3-0.1-0.4,0c-0.3,0-0.5,0.1-0.7,0.4
				c0,0,0,0.1-0.1,0.1c0-0.1,0-0.2,0-0.2h-0.2c0,0,0,0.1,0,0.1c0,0.1,0,0.2,0,0.3c0,0.8,0,1.7-0.1,2.5c0,1.2-0.1,2.4-0.1,3.6
				c0,0.7,0,1.5,0,2.2c0,0.1,0,0.3,0,0.4c0,0,0,0.1,0,0.1c-0.1,0-0.2,0-0.3,0c-0.3,0-0.6,0.1-1,0.2c-0.1,0-0.2,0.1-0.2,0.1
				c0,0.1,0,0.1,0,0.1c0.1,0.1,0.2,0.1,0.3,0.2c0,0,0.1,0,0.1,0c0,0.1,0,0.1,0,0.2c0.1,0.1,0.2,0.1,0.3,0.1c0.2,0,0.3,0.1,0.5,0.1
				c0.1,0,0.1,0,0.2,0c0,0,0,0,0,0.1c0,0.9,0,1.8-0.1,2.7c0,1.2-0.1,2.4-0.1,3.5c0,0.8,0,1.5,0,2.2c0,0.1,0,0.2,0,0.3
				c0,0,0,0.1,0,0.1c-0.1,0-0.1,0-0.2,0c-0.2,0-0.4,0-0.5,0c-0.1,0-0.2,0-0.4,0.1c-0.1,0-0.1,0.1-0.2,0.1c0,0,0,0.1,0,0.1
				s0.1,0.1,0.1,0.1c0.1,0,0.2,0,0.2,0.1s0.2,0,0.2,0c0,0,0,0,0,0c-0.1,0.1,0,0.1,0,0.2c0.1,0.1,0.1,0.1,0.2,0.1c0.1,0,0.2,0,0.3,0
				c0.1,0,0.1,0,0.2,0c0,0.1,0,0.1,0,0.2c0,0.2,0,0.3,0,0.4c0,0.8,0,1.5,0,2.3c0,0.6,0,1.1,0,1.7c0,1.2-0.1,2.4-0.1,3.6
				c0,0.7,0,1.5,0,2.2c0,0.4,0,0.8,0,1.3c0,0.1,0,0.1,0,0.2c-0.2,0-0.5,0-0.7,0.1s-0.5,0-0.7,0.1s-0.5,0-0.7,0c-0.3,0-0.6,0-0.7,0
				c0-0.1,0-0.2,0-0.4c0-0.1,0-0.3,0-0.4s0-0.2,0-0.4c0,0-0.1,0-0.1,0c-0.2,0-0.3,0-0.5,0c-0.6,0-1.2,0.1-1.8,0.2
				c-0.4,0.1-0.9,0.2-1.3,0.2c0,0-0.1,0-0.1,0c0-0.1,0-0.2,0-0.2c0-0.2,0-0.4,0-0.6h-0.6c0,0.4,0,0.7,0,0.9c0,0-0.1,0-0.1,0
				c-0.3,0.1-0.7,0.1-1,0.2c-0.2,0-0.5,0.1-0.7,0.1c-0.2,0-0.4,0.1-0.5,0.1c-0.4,0-0.8,0.1-1.3,0c-0.1,0-0.1,0-0.2,0
				c-0.1,0.4-0.2,1.6-0.1,2.4c11.2-4.3,17.8,3.3,30.4,4.4c0.2,0,0.4,0,0.6,0c0.2-0.4,0.5-0.8,0.7-1.2l0,0c0,0,0-0.1,0.1-0.2
				c0,0,0,0,0,0c0,0,0,0,0,0c0.3-0.7,1.1-2.4,1.1-2.4c0,0,0-0.1,0-0.1c0.2-0.4,0.3-0.8,0.5-1.3c0.3-0.8,0.5-1.6,0.6-2.5
				c0-0.4,0.1-0.7,0-1.1c0-0.1,0-0.2,0-0.3c0,0,0.1-0.1,0.2-0.1c1.5-1.2,3.1-2.3,4.7-3.5c1.4-1,2.8-2.1,4.1-3.1
				c0.1,0,0.1-0.1,0.1-0.1C62.1,36.1,62.1,36.1,62.1,36L62.1,36z"/>
		</g>
	</g>
	<g>
		<path class="st1" d="M36,30.3C36,30.3,36,30.2,36,30.3C36,30.2,36,30.2,36,30.3c4.3,0.7,8.6,1.4,12.9,2.1c0,0,0.1,0,0.1,0
			c0,0.2,0,0.4,0,0.8c0,0.3,0,0.5-0.1,0.8c0,0.3-0.1,0.5-0.2,0.8c0,0,0.1,0,0.1,0c0,0,0.1,0,0.1,0c0.3-0.1,0.6-0.2,0.9-0.2
			c0.2,0,0.4-0.1,0.6-0.1c0,0,0.1,0,0.1,0c0,0,0,0.1,0,0.2c0.2,0.7,0.3,1.3,0.4,2c0.1,0.6,0.1,1.2,0,1.8c-0.1,0.7-0.2,1.3-0.4,1.9
			c-0.2,0.6-0.4,1.1-0.8,1.6c0,0-0.1,0.1-0.1,0.2c0,0,0,0,0,0c0,0,0,0,0,0c-0.4-0.2-0.9-0.4-1.4-0.5c-0.6-0.1-1.2-0.2-1.8-0.3
			c-0.5,0-0.9-0.1-1.4-0.1c-0.8-0.1-1.6-0.1-2.4-0.1c-0.6,0-1.2,0-1.8,0.1c-0.5,0-1.1,0.1-1.6,0.2c-1,0.2-2,0.4-3,0.7
			c-0.1,0-0.1,0-0.2,0.1c0,0,0-0.1,0-0.1c0,0,0-0.1,0-0.1c0.3-0.5,0.5-1.1,0.7-1.6c0.3-0.8,0.6-1.7,0.8-2.6c0.1-0.5,0.2-1.1,0.2-1.7
			c0-0.5,0-1.1,0-1.6c-0.2-1.5-0.6-2.8-1.5-4C36.1,30.5,36,30.4,36,30.3C35.9,30.3,35.9,30.3,36,30.3L36,30.3z"/>
		<path class="st1" d="M47.6,20.5c0.2,0.4,0.5,0.8,0.7,1.3c0,0,0,0.1,0,0.1c0,0.3,0.1,0.7,0.1,1c0,0.4,0.1,0.8,0.1,1.1
			c0,0.3,0.1,0.6,0.1,0.9c0,0.3,0.1,0.7,0.1,1c0,0.4,0.1,0.7,0.1,1c0,0.5,0.1,0.9,0.1,1.4c0,0.4,0,0.9,0.1,1.3c0,0.4,0,0.8,0,1.2
			c0,0,0,0.1,0,0.1c0,0-0.1,0-0.1,0C48,30.3,47,29.9,46,29.6c-0.8-0.2-1.7-0.4-2.5-0.5c-0.5-0.1-1-0.1-1.5-0.1c-0.7,0-1.4,0-2.1,0
			c-0.5,0-1,0.1-1.5,0.1c-0.7,0.1-1.3,0.2-1.9,0.4c-0.1,0-0.2,0-0.2,0.1c0,0,0,0-0.1,0c0,0,0-0.1,0.1-0.1c0.6-0.7,1-1.5,1.4-2.4
			c0.4-1,0.7-2,0.9-3.1c0.2-0.9,0.2-1.8,0.2-2.8c0-0.9-0.1-1.7-0.3-2.5c0-0.1-0.1-0.3-0.1-0.4c0,0,0,0,0-0.1c0,0,0,0,0,0s0,0,0,0
			C41.3,18.9,44.4,19.8,47.6,20.5L47.6,20.5z"/>
		<path class="st1" d="M37.2,34.6c0,0.1,0,0.2,0,0.2c0,0.5,0,1.1,0,1.6c0,0.6-0.2,1.2-0.3,1.8c-0.3,1.2-0.7,2.3-1.2,3.4
			c-0.2,0.3-0.3,0.6-0.5,1c0,0,0,0.1-0.1,0.1c-0.2,0-0.3,0-0.5-0.1c-0.3,0-0.7-0.1-1-0.1c-0.9-0.1-1.8-0.1-2.8,0c-0.4,0-0.9,0-1.3,0
			c-0.4,0-0.9,0.1-1.3,0.1c-0.6,0.1-1.2,0.2-1.8,0.3c0,0-0.1,0-0.1,0c0,0,0,0,0,0c0,0,0-0.1,0-0.1c0.2-0.5,0.3-0.9,0.3-1.4
			c0.1-0.5,0.1-1.1,0.1-1.6c0-0.6,0-1.1-0.1-1.7c-0.1-0.7-0.2-1.4-0.4-2.2c-0.2-0.7-0.3-1.5-0.5-2.2c0,0,0-0.1,0-0.1
			c0,0,0.1,0,0.1,0c0.6,0,1.2,0.1,1.8,0.2c0.5,0,1,0.1,1.5,0.1c0.5,0,1,0.1,1.4,0.1c0.3,0,0.7,0,1,0.1c0.5,0,1,0.1,1.4,0.1
			c0.3,0,0.6,0,0.9,0.1c0.4,0,0.8,0.1,1.1,0.1c0.3,0,0.7,0,1,0.1c0.3,0,0.6,0,1,0.1C37.1,34.6,37.1,34.6,37.2,34.6L37.2,34.6z"/>
		<path class="st1" d="M26.1,32.5c0.1-0.2,0.1-0.3,0.2-0.4c0.6-1.2,1-2.5,1.2-3.8c0.1-0.6,0.2-1.1,0.2-1.7c0-0.5,0-1.1,0-1.6
			c-0.1-0.7-0.2-1.3-0.4-1.9c0,0,0-0.1-0.1-0.2c0.1,0,0.1,0,0.2,0c0.4,0.1,0.8,0.2,1.1,0.2c1.2,0.3,2.3,0.5,3.5,0.8
			c1.3,0.3,2.6,0.6,3.8,0.9c0.1,0,0.1,0,0.2,0c0.1,0,0.2,0.1,0.2,0.2c0.2,0.5,0.4,1,0.6,1.5c0,0.1,0.1,0.1,0.1,0.2
			c0,0.1,0,0.1,0,0.2c-0.1,0.1-0.1,0.2-0.2,0.4c-0.3,0.7-0.7,1.3-1.1,1.9c-0.1,0.1-0.2,0.3-0.3,0.4c0,0-0.1,0.1-0.1,0.1
			c-0.2,0-0.4-0.1-0.6-0.1c0,0,0,0.1,0.1,0.1c0.1,0.1,0.2,0.2,0.3,0.2c0.4,0.3,0.7,0.7,1,1.1c0.4,0.7,0.8,1.4,1,2.1c0,0,0,0.1,0,0.1
			c0,0-0.1,0-0.1,0c-0.7-0.3-1.3-0.5-2-0.7c-0.8-0.2-1.7-0.4-2.5-0.6c-0.5-0.1-1-0.1-1.5-0.2c-0.6,0-1.2-0.1-1.8,0
			c-0.9,0-1.7,0.2-2.5,0.6C26.4,32.4,26.3,32.5,26.1,32.5C26.2,32.5,26.2,32.5,26.1,32.5L26.1,32.5z"/>
		<path class="st1" d="M49.9,21.8c0,0,0.1,0.1,0.1,0.1c0.3,0.3,0.6,0.5,0.8,0.8c2,2.1,3.6,4.4,5,6.9c0.9,1.6,1.7,3.3,2.3,5.1
			c0,0.1,0.1,0.1,0.1,0.2c0,0-0.1,0-0.1,0c-1-0.6-2-1-3.1-1.4c-0.7-0.2-1.4-0.5-2.1-0.6c-0.7-0.1-1.3-0.2-2-0.2c0,0-0.1,0-0.1,0
			c0,0,0-0.1,0-0.1c0-0.2,0.1-0.5,0.1-0.7c0-0.3,0-0.6,0.1-0.9c0-0.4,0-0.7,0-1.1c0-0.5,0-1-0.1-1.5c0-0.4-0.1-0.9-0.1-1.3
			c0-0.5-0.1-0.9-0.2-1.4c-0.1-0.6-0.2-1.3-0.3-2c-0.1-0.6-0.2-1.2-0.4-1.8C49.9,21.8,49.9,21.8,49.9,21.8L49.9,21.8z"/>
		<path class="st1" d="M29.2,15.3c0.1,0,0.1,0,0.2,0c0.7,0.2,1.4,0.4,2.2,0.6c1.2,0.4,2.5,0.7,3.7,1.1c0.2,0.1,0.2,0,0.3,0.3
			c0.4,1,0.7,2.1,0.9,3.2c0.1,0.7,0.2,1.4,0.1,2.1c0,0.4-0.1,0.8-0.2,1.2c0,0,0,0.1,0,0.1c0,0,0-0.1-0.1-0.1c-0.2-0.5-0.6-1-1.1-1.3
			c-0.4-0.3-0.8-0.5-1.3-0.6c-0.7-0.2-1.4-0.4-2.2-0.4c-0.5,0-0.9,0-1.4,0c-0.6,0-1.1,0.1-1.7,0.2c-0.3,0.1-0.6,0.1-0.9,0.2
			c0,0-0.1,0-0.1,0c0,0,0-0.1,0-0.1c0.6-0.7,1-1.6,1.3-2.5c0.2-0.6,0.3-1.3,0.4-2c0-0.5,0-1,0-1.6c0-0.1-0.1-0.3-0.1-0.4
			C29.3,15.4,29.3,15.3,29.2,15.3z"/>
		<path class="st1" d="M47.6,19.2c-0.1-0.1-0.1-0.1-0.1-0.2c-0.1-0.3-0.3-0.5-0.5-0.8c-0.3-0.4-0.7-0.7-1.1-0.9
			c-0.6-0.4-1.3-0.6-2-0.7c-0.6-0.1-1.3-0.2-1.9-0.1c-0.8,0-1.6,0.2-2.4,0.4c-0.3,0.1-0.6,0.2-0.8,0.2c0,0-0.1,0-0.1,0
			c0,0,0-0.1,0-0.1c0.7-1,1.1-2.2,1.4-3.4c0.1-0.5,0.2-0.9,0.2-1.4c0-0.5,0-1.1-0.1-1.6c0,0,0-0.1,0-0.1c0.1,0,0.1,0,0.2,0.1
			c0.6,0.2,1.2,0.5,1.8,0.7c1.3,0.5,2.6,1.1,3.9,1.6c0.1,0.1,0.2,0.1,0.3,0.2c0.3,0.4,0.5,0.8,0.6,1.3c0.3,0.8,0.5,1.6,0.6,2.4
			c0.1,0.5,0.1,1.1,0.1,1.7c0,0.2,0,0.5,0,0.7C47.7,19.1,47.6,19.2,47.6,19.2L47.6,19.2z"/>
		<path class="st1" d="M26.2,31.2c-0.1,0.3-0.7,1.6-0.9,1.9c0,0-0.1,0-0.1,0c0,0,0,0.1,0,0.1c0.3,1,0.6,2,0.8,3.1c0,0.1,0,0.2,0,0.2
			c0,0,0,0.1,0,0.1c-0.1,0-0.1,0-0.2,0c-0.3-0.1-0.6-0.2-0.9-0.3c-0.4-0.1-0.7-0.1-1.1-0.2c-0.5,0-0.9,0-1.4,0
			c-0.5,0-0.9,0.1-1.4,0.2s-0.9,0.2-1.4,0.3c0,0-0.1,0-0.1,0c0,0,0,0,0-0.1c0.3-0.4,0.5-0.8,0.7-1.3c0.2-0.5,0.3-1,0.4-1.5
			c0.1-0.5,0.2-1.1,0.2-1.7c0-0.6,0.1-1.2,0.1-1.8c0,0,0-0.1,0-0.1c0,0,0.1,0,0.1,0c0.5,0.1,1,0.3,1.6,0.4c0.7,0.2,1.5,0.3,2.2,0.4
			c0.4,0,0.8,0.1,1.2,0.1C26.1,31.2,26.1,31.2,26.2,31.2L26.2,31.2z"/>
		<path class="st1" d="M54.1,33.7c0.1,0.3,0.2,0.5,0.2,0.8c-1.7-0.5-3.3-0.6-5-0.3c0,0,0-0.1,0-0.1c0.1-0.6,0.1-1.2,0.2-1.8
			c0-0.3,0-0.7,0-1c0-0.8,0-1.5-0.1-2.3c0-0.7-0.1-1.3-0.1-2c0-0.7-0.1-1.5-0.2-2.2c0-0.5-0.1-1-0.2-1.5c0-0.3-0.1-0.7-0.1-1
			c0,0,0,0,0-0.1c0,0,0,0,0.1,0.1c0.3,0.5,0.6,1.1,0.9,1.6c0,0,0,0.1,0.1,0.2c0.1,0.6,0.2,1.1,0.3,1.7c0.1,0.5,0.1,1,0.2,1.5
			c0,0.4,0.1,0.9,0.1,1.3c0,0.6,0.1,1.1,0.1,1.7c0,0.6,0,1.2-0.1,1.9c0,0.3-0.1,0.6-0.2,0.9c0,0.1,0,0.1,0,0.2c0,0,0.1,0,0.1,0
			c0.2,0,0.3-0.1,0.5-0.1c0.2,0,0.5,0,0.7,0c0.8,0.1,1.6,0.3,2.4,0.5C54,33.7,54.1,33.7,54.1,33.7L54.1,33.7z"/>
		<path class="st1" d="M26,27c0,0,0,0.1,0.1,0.2c0.2,0.5,0.3,1.1,0.5,1.6c0,0.3,0.1,0.5,0.2,0.8c0,0.1,0,0.2,0,0.3
			c0,0,0,0.1-0.1,0.2c0,0-0.1,0-0.1,0c-0.5-0.5-1.2-0.7-1.9-0.9c-1-0.2-2-0.1-2.9,0.2c0,0-0.1,0-0.1,0c0,0,0,0,0-0.1
			c0.2-0.4,0.3-0.9,0.4-1.4c0.1-0.5,0.1-1.1,0.2-1.6c0,0,0-0.1,0-0.1C22.3,26.2,25.5,26.8,26,27L26,27z"/>
		<path class="st1" d="M35.8,42.8c0.2-0.2,1.8-0.6,2.2-0.7c0,0.1,0,0.1,0,0.2c-0.2,0.3-0.3,0.7-0.6,0.9c-0.3-0.1-0.5-0.2-0.8-0.2
			C36.3,42.9,36.1,42.9,35.8,42.8L35.8,42.8z"/>
		<path class="st1" d="M26,33.2c0.4-0.3,0.8-0.5,1.3-0.6c0,0,0,0.1,0,0.1c0,0.2,0,0.4,0.1,0.7c0,0-0.1,0-0.1,0c-0.2,0-0.3,0-0.5,0
			C26.5,33.3,26.3,33.2,26,33.2C26,33.2,26,33.2,26,33.2L26,33.2z"/>
		<path class="st1" d="M36.4,29.8c0.5-0.2,1-0.3,1.5-0.4c0.1,0.2,0.2,0.5,0.2,0.6c0,0,0,0,0,0C37.5,30,36.9,29.9,36.4,29.8
			L36.4,29.8z"/>
	</g>
	<path class="st1" d="M17.6,44c0,0,2-1.5,2.1-3.9s0.1-2.5,0.1-2.5s0.8,0.5,3.4,0.2c2.6-0.4,2.6-0.2,2.6-0.2s0.5-0.1,0.5,2
		s-0.5,4.1-0.5,4.1L17.6,44L17.6,44z"/>
	<g>
		<path class="st0" d="M23.7,26.3c0-0.6,0-1.3,0-1.9c-0.1,0-0.1,0-0.2,0c0,0,0,0.1,0,0.2c0,0.4,0,0.8,0,1.2c0,0.2,0,0.4,0,0.5
			L23.7,26.3L23.7,26.3z"/>
		<path class="st0" d="M23.3,29.2c0,0.2,0,0.4,0,0.6c0,0.2,0,0.3,0,0.5c0,0,0,0.1,0,0.1c0,0,0.1,0,0.1,0c0,0,0.1,0,0.1,0
			c0-0.4,0-0.9,0-1.3L23.3,29.2L23.3,29.2z"/>
	</g>
</g>
</svg>
