<?xml version="1.0" encoding="utf-8"?>
<!-- Generator: Adobe Illustrator 27.2.0, SVG Export Plug-In . SVG Version: 6.00 Build 0)  -->
<svg version="1.1" id="Layer_1" xmlns="http://www.w3.org/2000/svg" xmlns:xlink="http://www.w3.org/1999/xlink" x="0px" y="0px"
	 viewBox="0 0 73.8 73.8" style="enable-background:new 0 0 73.8 73.8;" xml:space="preserve">
<style type="text/css">
	.st0{fill:#0090C9;}
	.st1{fill:#00649B;}
	.st2{fill:#00467D;}
	.st3{fill:#0076AE;}
</style>
<g>
	<g>
		<path class="st0" d="M27.1,45.3c6.8-3.7,15.7,1.1,21.8,2.9c3.3,1,10,2.1,12.2-0.5c-0.1,0.4-0.3,0.7-0.6,1c-2.2,2.4-6.7,2.7-10,2.3
			C42.9,50,35.6,44.3,27.1,45.3L27.1,45.3z"/>
		<path class="st1" d="M14.5,50.8c3.4-1.6,7-1.6,10.6-0.9c7.7,1.5,10.4,4.6,18.3,5.4c2.9,0.2,4.7-0.1,6.4-0.2
			c-5.9,2.4-10.3,2.1-15.6,0.3c-4.1-1.4-12.9-5.4-19.6-3.4C13.2,52.5,13,51.6,14.5,50.8z"/>
		<path class="st2" d="M15.3,53.7c0,0,3.7-0.2,5.6,0c7.8,1,10.6,4,18.6,4.2c2.9,0,4.7-0.4,6.4-0.6c-5.8,2.8-10.1,2.8-15.5,1.3
			c-3.1-0.8-8.9-3.1-14.4-3C15.3,55.7,15.3,53.7,15.3,53.7z"/>
		<path class="st3" d="M60.3,51.8c0.4-0.3,1-0.4,1.1-0.8c0.6-1.5,0.4-1.3,0-1.9c-0.2-0.3-0.7,0.4-1.2,0.7c-2.2,1.5-5.6,2.4-10.2,2.3
			c0,0,0,0,0,0c-0.5,0.7-1.2,1.8-1.6,2.4C53.6,54.8,57.6,53.6,60.3,51.8z"/>
	</g>
	<path class="st3" d="M19.2,48.3c0-0.2-0.1-0.4-0.1-0.6c-0.9,0.3-1.8,0.7-2.7,1.2C17.3,48.7,18.2,48.5,19.2,48.3z"/>
</g>
</svg>
