<?xml version="1.0" encoding="UTF-8"?>
<svg id="Layer_1" data-name="Layer 1" xmlns="http://www.w3.org/2000/svg" viewBox="0 0 86.37 102.62">
  <defs>
    <style>
      .cls-1 {
        fill: #00467d;
      }

      .cls-2 {
        fill: #906a47;
      }

      .cls-3 {
        fill: #c38c63;
      }

      .cls-4 {
        fill: #0076ae;
      }

      .cls-5 {
        fill: #00557d;
      }

      .cls-6 {
        fill: #00649b;
      }

      .cls-7 {
        fill: #d9a576;
      }

      .cls-8 {
        fill: #856547;
      }

      .cls-9 {
        fill: #0090c9;
      }
    </style>
  </defs>
  <g>
    <path class="cls-5" d="m25.25,71.92l.54.15c1.27.19,1.9.57,1.9,1.14,0,.16-.06.29-.18.4-1.35,1.21-3.14,2.51-5.38,3.91-3.41,2.13-7.29,4.18-11.62,6.17,1.42.81,3.34,2.15,5.77,4.03,3.26,2.41,5.26,3.61,6.01,3.61.26,0,.48-.07.67-.22.18-.14.29-.22.31-.22.17,0,.25.08.25.24,0,.14-.17.54-.5,1.2-.33.66-.62,1.09-.85,1.3-.23.21-.61.31-1.12.31s-1.19-.25-2.04-.75c-.85-.5-1.77-1.13-2.78-1.88-1-.75-2-1.52-3-2.3-2.53-1.95-4.23-3.1-5.11-3.46-3.08,4.85-4.66,7.36-4.74,7.53s-.19.31-.33.41c-.13.1-.22.16-.26.16l-.64.09-.52-.03c-.14,0-.24.02-.3.07-.06.05-.13.08-.19.1-.07.02-.13.05-.18.1-.05.05-.13.07-.23.07s-.25-.08-.43-.25c-.18-.16-.28-.31-.28-.43s.07-.33.22-.63c.14-.3,1.98-3.08,5.52-8.34h-.28c-.67,0-1-.18-1-.55s.17-.73.5-1.09c.33-.36.67-.55,1.01-.55s.71.03,1.12.09c1.89-2.79,3.34-4.97,4.36-6.56-1.16,1.09-2.26,1.63-3.3,1.63-.5,0-.89-.17-1.18-.52-.29-.34-.43-.74-.43-1.18s.11-.8.34-1.08c.22-.28.44-.47.65-.58.21-.11.35-.16.43-.16s.12.04.12.12l-.12.36c0,.14.21.21.64.21s1.03-.24,1.8-.71c.77-.47,1.52-.95,2.26-1.42.74-.47,1.29-.71,1.66-.71s.61.04.73.13c.11.09.22.14.31.16.09.03.17.06.23.11.06.05.11.11.15.19.04.08.11.16.22.25.11.09.16.21.16.36s-.04.29-.12.42c-1.27,1.92-2.83,4.33-4.67,7.25,2.48-1.29,5.31-2.94,8.49-4.95,3.19-2.01,4.91-3.2,5.17-3.56.06-.1.14-.15.25-.15Z"/>
    <path class="cls-5" d="m33.92,82.22c.76,0,1.14.26,1.14.78,0,.28-.07.48-.19.61-.13.13-.41.56-.83,1.3-.42.73-.89,1.67-1.41,2.82-.51,1.14-.85,2.12-1,2.93-.03.1-.05.24-.05.42,0,.55.15.82.45.82s.65-.14,1.06-.43c.41-.28.77-.59,1.09-.91.32-.32.63-.66.94-1,.3-.34.49-.53.55-.58.06-.05.15-.07.27-.07.19,0,.3.14.34.43.04.29.06.59.06.9s-.03.52-.09.64c-.29.57-.93,1.25-1.91,2.05-.98.8-1.88,1.2-2.68,1.2s-1.4-.24-1.77-.73c-.38-.49-.57-1.03-.57-1.62s.1-1.12.3-1.57c-.83,1.08-1.78,1.99-2.85,2.74-1.07.75-1.95,1.12-2.63,1.12s-1.23-.21-1.66-.61c-.55-.51-.82-1.22-.82-2.12s.2-1.81.61-2.73c.4-.91.94-1.75,1.6-2.5.66-.75,1.38-1.44,2.17-2.06,1.66-1.3,3.19-1.95,4.58-1.95.54,0,.98.09,1.32.27.34.18.55.4.64.67.24-.36.44-.59.61-.68.16-.09.41-.14.74-.14Zm-1.99,1.66c-1.71,0-3.47.95-5.3,2.85-.65.68-1.25,1.49-1.79,2.44-.54.95-.82,1.6-.82,1.95s.1.52.3.52c.28,0,1.06-.55,2.34-1.65,1.28-1.1,2.13-1.91,2.55-2.43.46-.58,1.37-1.8,2.73-3.67Z"/>
    <path class="cls-5" d="m42.39,88.92c.12.04.2.15.23.33.13.65.12,1.19-.02,1.63-.05.08-.42.31-1.12.7-.69.39-1.48.84-2.37,1.35-.88.51-1.86,1.16-2.94,1.96-1.08.8-1.97,1.59-2.68,2.37-.42.84-1.01,1.73-1.78,2.67-1.49,1.8-2.73,2.7-3.71,2.7-.4,0-.74-.13-1.02-.39-.28-.26-.42-.58-.42-.97s.1-.75.29-1.09c.19-.33.52-.73.98-1.18.46-.45.85-.82,1.18-1.11.33-.29.85-.72,1.57-1.3.71-.58,1.2-.98,1.46-1.2.44-.74,1-1.69,1.68-2.86.68-1.17,1.22-2.09,1.62-2.76,1.14-1.91,2.04-3.33,2.7-4.27-.05,0-.16,0-.33.02-.17.02-.31.03-.43.02-.11,0-.23-.06-.36-.18-.13-.11-.21-.29-.25-.53-.06-.35.51-.94,1.71-1.76,1.2-.82,2.02-1.24,2.45-1.24.75,0,1.12.37,1.12,1.12,0,.08-.04.23-.12.46-.08.23-.94,1.67-2.57,4.31s-2.76,4.45-3.39,5.41c.09-.06.37-.26.83-.6s.95-.69,1.46-1.06,1.04-.74,1.59-1.12c1.27-.88,2-1.32,2.2-1.32.16-.12.3-.16.43-.12Zm3.57-11.97c0,.66-.36,1.3-1.07,1.93-.71.63-1.4.94-2.06.94-.47,0-.7-.29-.7-.86s.33-1.18.99-1.8,1.3-.94,1.92-.94.93.24.93.73Z"/>
    <path class="cls-5" d="m54.46,88.9c.19,0,.3.14.34.43.04.29.06.59.06.9s-.03.52-.09.64c-.29.56-.92,1.24-1.9,2.04-.98.8-1.91,1.21-2.79,1.21-.54,0-1.04-.16-1.5-.49-.46-.32-.69-.89-.69-1.7s.21-1.6.64-2.38c-2.48,3.11-4.42,4.66-5.83,4.66-.56,0-1.01-.2-1.36-.6-.34-.4-.52-.81-.52-1.24s.06-.86.18-1.32c.12-.45.25-.86.38-1.22.13-.36.33-.8.6-1.33.26-.53.46-.91.59-1.15.13-.24.34-.6.62-1.09.28-.48.66-1.14,1.12-1.95.46-.82.85-1.43,1.15-1.82s.6-.59.89-.6c.29,0,.54.11.76.35.22.24.33.43.33.58s-.33.82-1,2.02c-1.98,3.57-2.97,5.66-2.97,6.25,0,.15.05.22.16.22.48,0,1.67-1.04,3.58-3.12,1.91-2.08,3.01-3.41,3.31-3.99.3-.58.59-1.08.88-1.48.28-.4.5-.64.64-.73.43-.28.98-.43,1.66-.45.11,0,.19,0,.25.02.06.01.13.1.21.25s.12.28.12.37c-.09.28-.49,1.02-1.19,2.23-.7,1.21-1.1,1.89-1.18,2.05-1.18,2.44-1.77,4.02-1.77,4.76,0,.42.16.63.48.63.58-.08,1.28-.54,2.1-1.39.3-.31.6-.62.89-.94.29-.32.48-.51.55-.56.07-.05.15-.08.25-.08Z"/>
    <path class="cls-5" d="m64.21,74.31l.61.15c.09,0,.17.05.24.13.07.09.1.18.1.25s-.1.29-.31.64c-.21.35-.46.75-.74,1.19-.29.44-.44.69-.46.73.78-.06,1.33-.09,1.65-.09s.55.02.67.07c.12.05.26.17.41.37.15.2.3.36.43.46.13.11.2.26.2.47s-.13.39-.38.53c-.25.15-.53.23-.82.26-2.32.23-3.59.35-3.83.36-.81,1.24-1.94,3.17-3.39,5.79-1.45,2.62-2.22,4.26-2.31,4.92-.04.3-.06.54-.06.73,0,.39.2.58.61.58s.86-.16,1.36-.47c.5-.31.96-.66,1.38-1.03,1.12-1,1.72-1.5,1.8-1.5.26,0,.39.45.39,1.35,0,.49-.22.93-.67,1.32-1.01.87-1.86,1.52-2.55,1.96-.69.44-1.38.66-2.07.66-.15,0-.29-.02-.42-.05-.8-.15-1.39-.44-1.76-.88s-.56-1.02-.55-1.76c0-.74.22-1.63.66-2.69.43-1.05.98-2.17,1.64-3.36,1.08-1.94,2.16-3.75,3.24-5.45l-.57.08c-1.16.13-1.83.19-2.02.19h-.14c-.29,0-.57-.06-.84-.17s-.4-.26-.4-.43.07-.33.22-.49.23-.28.26-.37c.07-.22.33-.46.79-.73.45-.27.8-.41,1.03-.43s.45-.03.67-.04c.21-.01.45-.02.72-.03s.47-.02.61-.03l1.35-.06c.84-1.26,1.42-2.07,1.73-2.43.32-.36.5-.56.55-.59.05-.03.15-.05.3-.05l.7-.09Z"/>
    <path class="cls-5" d="m71.92,82.22c.76,0,1.14.26,1.14.78,0,.28-.07.48-.19.61-.13.13-.41.56-.83,1.3-.42.73-.89,1.67-1.41,2.82-.51,1.14-.85,2.12-1,2.93-.03.1-.04.24-.04.42,0,.55.15.82.45.82s.65-.14,1.06-.43c.41-.28.77-.59,1.09-.91.32-.32.63-.66.94-1,.3-.34.49-.53.55-.58.06-.05.15-.07.27-.07.19,0,.3.14.34.43.04.29.06.59.06.9s-.03.52-.09.64c-.29.57-.93,1.25-1.91,2.05-.98.8-1.88,1.2-2.68,1.2s-1.4-.24-1.77-.73-.57-1.03-.57-1.62.1-1.12.3-1.57c-.83,1.08-1.78,1.99-2.85,2.74-1.07.75-1.95,1.12-2.63,1.12s-1.23-.21-1.66-.61c-.55-.51-.82-1.22-.82-2.12s.2-1.81.61-2.73.94-1.75,1.6-2.5c.66-.75,1.38-1.44,2.17-2.06,1.66-1.3,3.19-1.95,4.58-1.95.54,0,.98.09,1.32.27.34.18.55.4.64.67.24-.36.44-.59.61-.68.16-.09.41-.14.74-.14Zm-1.99,1.66c-1.71,0-3.47.95-5.3,2.85-.65.68-1.25,1.49-1.79,2.44-.54.95-.82,1.6-.82,1.95s.1.52.3.52c.28,0,1.06-.55,2.34-1.65s2.13-1.91,2.55-2.43c.46-.58,1.37-1.8,2.73-3.67Z"/>
    <path class="cls-5" d="m80.8,91.3c0,.44.3.66.9.66.32,0,.72-.16,1.21-.48.48-.32.92-.67,1.31-1.05,1.04-1.03,1.63-1.54,1.77-1.54.26,0,.39.37.39,1.12s-.23,1.26-.7,1.54c-1.43,1.29-2.53,2.07-3.31,2.35-.44.15-.92.22-1.45.21-.53-.01-1.05-.24-1.57-.69-.52-.45-.78-1-.78-1.64s.17-1.38.51-2.19c.34-.82.69-1.52,1.04-2.1s.79-1.26,1.31-2.04.79-1.26.82-1.45l-.03-.03c-.33.03-1.15.68-2.45,1.95-1.3,1.27-2.38,2.37-3.23,3.31-.85.94-1.86,2.19-3.04,3.76-.33.43-.6.64-.81.64s-.49-.07-.85-.2-.57-.23-.65-.29c-.08-.06-.12-.15-.12-.27s.04-.27.11-.44c.07-.17.14-.32.2-.43.07-.11.17-.29.32-.53s.45-.75.89-1.52c.44-.77,1.13-1.93,2.04-3.47.92-1.54,1.47-2.47,1.65-2.79.38-.66.69-1.14.93-1.44.45-.57,1.21-.85,2.28-.85.24,0,.36.15.36.45,0,.47-.43,1.35-1.3,2.65l-.63.94c1.73-1.92,3.19-3.13,4.37-3.64.58-.25,1.1-.37,1.57-.37s.83.13,1.11.37c.27.25.41.53.41.83s-.1.67-.31,1.09-.42.8-.64,1.14-.5.76-.85,1.27c-.35.51-.54.79-.57.83s-.11.16-.23.36c-.13.19-.22.34-.28.43-.06.09-.16.25-.3.47-.14.22-.25.41-.34.56-.09.15-.19.33-.31.55-.12.22-.22.41-.3.57-.08.16-.15.33-.23.52-.14.35-.21.64-.21.87Z"/>
  </g>
  <g>
    <g>
      <path class="cls-9" d="m33.33,45.32c6.77-3.67,15.74,1.09,21.76,2.88,3.32.99,9.99,2.12,12.25-.52-.12.36-.35.69-.61.98-2.18,2.37-6.7,2.71-9.97,2.28-7.56-.9-14.87-6.68-23.44-5.62Z"/>
      <path class="cls-6" d="m20.8,50.83c3.38-1.63,6.99-1.59,10.65-.93,7.71,1.45,10.37,4.63,18.31,5.43,2.88.2,4.74-.09,6.38-.17-5.92,2.39-10.3,2.11-15.59.3-4.11-1.39-12.85-5.43-19.64-3.41-1.47.44-1.65-.43-.11-1.22Z"/>
      <path class="cls-1" d="m21.55,53.74s3.72-.2,5.64.01c7.79.95,10.65,3.95,18.62,4.23,2.89,0,4.72-.4,6.36-.58-5.75,2.77-10.14,2.77-15.54,1.31-3.11-.83-8.87-3.11-14.35-2.99-.71.02-.73-1.98-.73-1.98Z"/>
      <path class="cls-4" d="m66.61,51.81c.42-.28.99-.41,1.14-.8.57-1.53.39-1.28-.03-1.94-.22-.33-.74.41-1.17.69-2.23,1.46-5.61,2.42-10.19,2.34,0,0-.02,0-.03,0-.45.7-1.18,1.8-1.64,2.36,5.19.34,9.2-.83,11.92-2.65Z"/>
    </g>
    <g>
      <path class="cls-3" d="m45.43,8.61c-.17-.14-1.51-1.41-.35-3.11-.53.44-1.22.7-1.96.7s-1.49-.29-2.04-.77c.28.56.66,1.79-.37,3.19h.02c.81-.07,1.62-.11,2.45-.11.76,0,1.51.04,2.25.1Z"/>
      <path class="cls-2" d="m45.09,5.49c.69-.57,1.13-1.43,1.13-2.4,0-1.71-1.39-3.1-3.1-3.1s-3.1,1.39-3.1,3.1c0,.93.41,1.76,1.06,2.33.54.48,1.26.77,2.04.77s1.43-.26,1.96-.7Z"/>
      <path class="cls-3" d="m14.88,34.67c-.14.16-1.41,1.51-3.11.35.44.53.7,1.22.7,1.96s-.29,1.49-.77,2.04c.56-.28,1.79-.66,3.19.37v-.03c-.07-.81-.11-1.62-.11-2.45,0-.76.04-1.5.1-2.25Z"/>
      <path class="cls-2" d="m11.77,35.02c-.57-.69-1.43-1.13-2.4-1.13-1.71,0-3.1,1.39-3.1,3.1s1.39,3.1,3.1,3.1c.93,0,1.76-.41,2.33-1.06.48-.54.77-1.26.77-2.04s-.26-1.43-.7-1.96Z"/>
      <path class="cls-3" d="m40.94,65.22c.16.14,1.52,1.4.35,3.11.53-.44,1.22-.7,1.96-.7s1.49.29,2.04.77c-.28-.56-.66-1.79.37-3.19h-.03c-.81.07-1.62.11-2.45.11-.76,0-1.51-.04-2.25-.1Z"/>
      <path class="cls-2" d="m41.29,68.33c-.69.57-1.13,1.43-1.13,2.4,0,1.71,1.39,3.1,3.1,3.1s3.1-1.39,3.1-3.1c0-.93-.41-1.76-1.06-2.33-.54-.48-1.26-.77-2.04-.77s-1.43.26-1.96.7Z"/>
      <path class="cls-3" d="m74.67,34.81c-.56.28-1.79.66-3.19-.37v.02c.07.81.11,1.62.11,2.45,0,.76-.04,1.51-.1,2.25.14-.16,1.4-1.51,3.11-.35-.44-.53-.7-1.22-.7-1.96s.29-1.49.77-2.04Z"/>
      <path class="cls-2" d="m77,33.75c-.93,0-1.76.41-2.33,1.06-.48.54-.77,1.26-.77,2.04s.26,1.43.7,1.96c.57.69,1.43,1.13,2.4,1.13,1.71,0,3.1-1.39,3.1-3.1s-1.39-3.1-3.1-3.1Z"/>
      <path class="cls-3" d="m24.76,15.31c-.23.02-2.06.07-2.45-1.95-.07.69-.37,1.36-.89,1.88-.55.55-1.26.85-1.98.9.6.2,1.73.8,2,2.52,1.01-1.21,2.13-2.33,3.33-3.35Z"/>
      <path class="cls-2" d="m22.31,13.35c.09-.89-.21-1.81-.89-2.5-1.21-1.21-3.17-1.21-4.38,0-1.21,1.21-1.21,3.17,0,4.38.66.66,1.54.96,2.4.9.72-.05,1.43-.35,1.98-.9.53-.53.82-1.2.89-1.88Z"/>
      <path class="cls-3" d="m21.58,55.34c.02.23.07,2.06-1.96,2.45.69.07,1.36.36,1.89.89.55.55.85,1.26.9,1.98.2-.6.8-1.73,2.52-2h0c-1.21-1.02-2.32-2.13-3.34-3.33Z"/>
      <path class="cls-2" d="m19.63,57.79c-.89-.09-1.81.21-2.5.89-1.21,1.21-1.21,3.17,0,4.38,1.21,1.21,3.17,1.21,4.38,0,.66-.66.95-1.54.9-2.4-.05-.72-.35-1.43-.9-1.98-.53-.53-1.2-.82-1.89-.89Z"/>
      <path class="cls-3" d="m61.61,58.52c.23-.02,2.06-.07,2.45,1.96.07-.69.36-1.36.89-1.89.55-.55,1.26-.85,1.98-.9-.6-.2-1.73-.8-2-2.52h0c-1.01,1.21-2.13,2.33-3.33,3.35Z"/>
      <path class="cls-2" d="m64.06,60.47c-.09.89.21,1.81.89,2.5,1.21,1.21,3.17,1.21,4.38,0,1.21-1.21,1.21-3.17,0-4.38-.66-.66-1.54-.96-2.4-.9-.72.05-1.43.35-1.98.9-.53.53-.82,1.2-.89,1.89Z"/>
      <path class="cls-3" d="m64.79,18.49c-.01-.23-.07-2.06,1.96-2.45-.69-.07-1.36-.37-1.89-.89-.55-.55-.85-1.26-.9-1.98-.2.6-.8,1.73-2.52,2,1.21,1.01,2.33,2.13,3.35,3.33Z"/>
      <path class="cls-2" d="m66.75,16.04c.89.09,1.81-.21,2.5-.89,1.21-1.21,1.21-3.17,0-4.38-1.21-1.21-3.17-1.21-4.38,0-.66.66-.95,1.54-.9,2.4.05.72.35,1.43.9,1.98.53.53,1.2.82,1.89.89Z"/>
      <path class="cls-3" d="m71.48,34.46c-.52-6.07-2.95-11.6-6.69-15.98-1.02-1.2-2.14-2.31-3.35-3.33-4.4-3.7-9.93-6.08-16.01-6.55-.74-.06-1.49-.1-2.25-.1-.83,0-1.64.04-2.45.11-6.07.52-11.6,2.95-15.98,6.69-1.2,1.02-2.31,2.14-3.33,3.35-3.7,4.4-6.08,9.93-6.55,16.01-.06.74-.1,1.49-.1,2.25,0,.83.04,1.64.11,2.45.52,6.07,2.95,11.6,6.69,15.98,1.02,1.2,2.14,2.31,3.34,3.32,4.4,3.7,9.94,6.08,16.01,6.56.74.06,1.49.1,2.25.1.82,0,1.64-.04,2.45-.11,6.07-.52,11.6-2.95,15.98-6.69,1.2-1.02,2.31-2.14,3.33-3.35,3.7-4.4,6.08-9.93,6.55-16.01.06-.74.1-1.49.1-2.25,0-.83-.04-1.64-.11-2.45Zm-28.29,29.1c-14.72,0-26.65-11.93-26.65-26.65s11.93-26.65,26.65-26.65,26.65,11.93,26.65,26.65-11.93,26.65-26.65,26.65Z"/>
      <path class="cls-2" d="m43.19,10.26c-14.72,0-26.65,11.93-26.65,26.65s11.93,26.65,26.65,26.65,26.65-11.93,26.65-26.65-11.93-26.65-26.65-26.65Zm0,50.28c-13.05,0-23.63-10.58-23.63-23.63s10.58-23.63,23.63-23.63,23.63,10.58,23.63,23.63-10.58,23.63-23.63,23.63Z"/>
    </g>
    <g>
      <path class="cls-8" d="m50.09,53.81c-7.8-1.72-12.47-5.81-20.44-5.97-1.53-.04-2.89.15-4.22.43.01.05.03.09.04.13.03,0,.26,1,.29,1,.08.23.16.46.25.69.02.06.06.1.12.12.04.01.08.03.12.04.56.2,1.12.4,1.69.59,2.88.98,5.79,1.85,8.74,2.62,1.33.35,2.67.67,4.02.96.86.19,1.72.37,2.59.53.59.11,1.18.21,1.78.31.41.07.83.13,1.25.19.39.06.78.11,1.16.15.34.04.67.08,1.01.12.31.03.62.07.92.09.38.03.77.06,1.15.08.51.03,1.03.05,1.54.06.28,0,.56-.05.82-.16.38-.16.72-.39,1.03-.65.26-.22.49-.45.72-.7-1.44-.09-2.96-.3-4.58-.65Z"/>
      <g>
        <path class="cls-8" d="m29.81,37.3c0-.15,0-.31,0-.46,0-.04-.01-.08-.02-.12-.12-.02-.24-.03-.36,0,0,.01-.02.23-.03.59h.41Z"/>
        <path class="cls-8" d="m68.39,36.01c-.06.03-.11.06-.16.09-.8.49-1.6.97-2.39,1.46-1.46.89-2.92,1.78-4.38,2.68-1.24.76-2.48,1.52-3.72,2.28-.09.06-.19.08-.3.08-.39-.01-.77-.02-1.16-.03-.58,0-1.17-.02-1.75-.02-.6,0-1.2.03-1.81.04-.15,0-.29.01-.44.02-.26.02-.52.04-.79.06-.34.03-.68.06-1.01.09-.28.03-.56.05-.84.08-.04,0-.09,0-.14,0,0-.06,0-.11-.01-.16-.02-.91-.04-1.81-.05-2.72-.03-1.37-.05-2.73-.07-4.1-.02-1.27-.05-2.54-.07-3.8,0-.38-.01-.76-.01-1.14,0-.05-.02-.11.03-.16.02,0,.05,0,.08-.01.11-.01.22-.02.33-.04.14-.02.28-.06.4-.13.04-.02.08-.05.11-.09.02-.03.01-.08.02-.12.09-.03.18-.05.27-.08.08-.03.15-.06.22-.1.16-.09.17-.2.02-.31-.06-.05-.13-.09-.2-.11-.13-.04-.26-.09-.39-.11-.22-.04-.45-.05-.68-.08-.08,0-.16,0-.24-.04,0-.04,0-.08,0-.11,0-.45-.02-.9-.03-1.35-.03-1.76-.06-3.53-.09-5.29-.02-1.43-.05-2.86-.08-4.29,0-.05-.02-.11.03-.16.04,0,.09,0,.13,0,.21-.02.42-.03.62-.09.12-.04.23-.08.33-.16.07-.05.07-.08.04-.16,0-.02-.01-.03-.02-.04.12-.06.23-.09.33-.15.14-.08.13-.16,0-.25-.14-.1-.29-.15-.45-.18-.25-.05-.5-.06-.75-.07-.09,0-.19,0-.28-.04,0-.04-.01-.08-.01-.12,0-.31-.02-.62-.02-.93-.02-1.05-.03-2.09-.05-3.14-.01-.71-.02-1.41-.04-2.12,0-.22-.01-.43-.02-.65,0-.06,0-.13.03-.19.06-.12.12-.25.18-.38.09-.19.18-.38.3-.55.07-.1.15-.18.25-.25.12-.08.26-.11.4-.07.11.03.21.07.31.12.12.06.23.13.35.2.24.14.48.28.73.42.24.13.49.21.76.25.31.05.61.02.88-.15.12-.07.24-.15.35-.23.14-.1.26-.22.39-.32.31-.25.62-.5.94-.74.16-.13.34-.23.53-.31.19-.08.39-.12.6-.09.16.02.31.06.46.12.21.08.4.19.58.32.18.13.35.27.53.4.03.02.05.04.08.06,0-.02.01-.02.01-.03,0-.01,0-.02,0-.03-.1-.29-.23-.55-.45-.76-.09-.09-.18-.17-.27-.25-.03-.03-.05-.06-.1-.11.07,0,.11,0,.14.01.1.04.21.07.31.12.16.07.32.1.49.09.03,0,.06,0,.07-.05-.33-.27-.66-.55-1.05-.74-.12-.06-.24-.11-.37-.16-.21-.07-.43-.11-.65-.1-.29,0-.57.09-.81.24-.18.11-.36.24-.54.37-.16.11-.3.24-.46.35-.21.15-.43.28-.67.37-.34.12-.68.16-1.03.09-.21-.05-.41-.12-.61-.23-.2-.11-.4-.23-.61-.35-.14-.08-.27-.16-.41-.24-.13-.07-.28-.12-.43-.15-.2-.04-.38-.01-.56.08-.17.09-.31.2-.42.36-.07.1-.13.21-.19.31-.01.02-.02.05-.06.03-.02-.2,0-.4-.02-.6-.08-.02-.15-.02-.22,0,0,.06,0,.11,0,.16-.02,2.52-.05,5.05-.07,7.57,0,.6,0,1.2-.01,1.81,0,.06.02.13-.03.19-.04,0-.08,0-.12.01-.17,0-.34.02-.51.03-.2.01-.41.05-.6.11-.13.04-.26.1-.37.19-.06.05-.06.1,0,.16.1.09.22.13.34.17.06.02.11.03.18.05-.07.1-.01.16.06.21.09.06.19.11.3.13.15.03.31.05.47.07.08.01.17,0,.26.04,0,.08,0,.15,0,.22-.02,2.89-.05,5.79-.07,8.68,0,.71-.01,1.41-.02,2.12,0,.06,0,.13-.01.2-.07,0-.12.02-.18.02-.16.01-.31.02-.47.04-.2.02-.4.06-.59.14-.08.03-.15.06-.22.11-.11.08-.12.17-.02.26.08.07.17.12.27.15.13.04.27.08.41.12.04.12.13.19.24.22.12.04.24.06.36.08.06.01.13,0,.19.05,0,.02,0,.04,0,.07-.04,4.04-.07,8.09-.11,12.13,0,.02,0,.03-.01.06-.05.01-.1.03-.15.03-.67.1-1.34.23-2,.36-1.58.33-3.17.66-4.75.99-.59.12-1.19.23-1.79.34-.49.09-.98.16-1.47.23-.21.03-.42.05-.63.08-.04,0-.09.02-.14-.02,0-3.85,0-7.71,0-11.56,0-.02,0-.04.01-.07.03,0,.06-.01.09-.01.1-.01.2-.02.3-.03.12-.02.24-.05.35-.11.13-.07.13-.11.02-.22,0,0,0-.02,0-.03.16-.05.36-.04.46-.22-.02-.08-.08-.11-.14-.13-.09-.03-.19-.07-.29-.08-.21-.03-.42-.05-.63-.08-.05,0-.11,0-.15-.03,0-.01-.01-.02-.01-.03,0-.02,0-.05,0-.07,0-2.97,0-5.94,0-8.91,0,0,0-.01,0-.02,0,0,0-.01,0-.02.05-.01.1-.02.15-.03.15-.04.29-.07.44-.12.09-.03.18-.06.22-.16-.02-.04-.03-.09-.05-.13.06-.02.11-.03.17-.05.08-.03.16-.07.23-.13.06-.06.06-.12,0-.18-.04-.03-.08-.06-.13-.09-.13-.06-.26-.1-.4-.12-.13-.02-.27-.03-.4-.05-.07,0-.15-.02-.22-.03,0-.02-.02-.03-.02-.04,0-.02,0-.03,0-.05,0-2.64,0-5.27,0-7.91,0,0,0-.01,0-.02,0,0,0,0,.02-.03.09,0,.13-.07.18-.14.06-.08.12-.16.19-.23.2-.22.45-.29.73-.21.18.05.36.11.53.17.33.11.67.21,1.02.25.19.02.38.02.58-.02.22-.05.42-.13.62-.23.26-.12.52-.24.78-.35.12-.05.25-.1.38-.14.22-.07.44-.1.67-.08.24.03.48.07.71.17.16.06.31.13.47.19.02,0,.04,0,.08.01-.14-.19-.3-.33-.49-.42.01-.06.05-.06.08-.05.15.03.3.07.45.07.02,0,.06.01.07-.03-.02-.01-.04-.03-.06-.03-.31-.14-.64-.27-.97-.34-.39-.09-.79-.08-1.18.04-.18.06-.36.13-.54.21-.17.07-.34.15-.52.21-.46.16-.93.19-1.4.08-.24-.06-.48-.14-.72-.22-.16-.05-.31-.1-.47-.14-.14-.03-.28-.05-.42-.04-.28.03-.53.14-.73.35-.03.03-.04.08-.1.06,0-.08,0-.16-.01-.24h-.2s-.02.08-.02.11c0,.09,0,.19-.01.28-.02.83-.04,1.66-.06,2.49-.03,1.19-.06,2.37-.09,3.56-.02.74-.03,1.48-.05,2.23,0,.13,0,.27-.02.4,0,.03-.01.07-.02.11-.11,0-.22,0-.32,0-.32.01-.64.06-.95.16-.09.03-.17.08-.23.15-.05.06-.05.1.01.15.1.08.22.13.34.17.04.01.08.03.13.05-.04.13-.04.14.04.2.09.06.19.11.3.14.16.04.32.07.48.08.06,0,.12-.01.17.04,0,.02,0,.05,0,.08-.02.91-.04,1.82-.06,2.73-.03,1.18-.06,2.36-.09,3.54-.02.75-.03,1.5-.05,2.24,0,.11,0,.21-.01.32,0,.03-.01.07-.02.11-.07,0-.13,0-.2.01-.18.01-.36.02-.54.04-.13.02-.25.05-.37.09-.06.02-.11.06-.16.1-.03.03-.03.08,0,.11.03.03.07.06.12.08.08.03.17.05.25.07.08.02.16.03.24.05-.01.02-.02.04-.03.05-.06.06-.04.1,0,.15.06.06.13.09.2.1.09.02.17.03.26.04.07.01.14.02.21.03,0,.07,0,.13,0,.18,0,.15-.01.29-.01.44-.02.75-.03,1.51-.05,2.26-.01.56-.03,1.11-.04,1.67-.03,1.19-.06,2.38-.09,3.58-.02.74-.03,1.47-.05,2.21,0,.43-.02.85-.03,1.28,0,.06,0,.11-.01.18-.24.04-.47.05-.7.07-.23.02-.47.04-.7.06-.23.02-.47.03-.7.05-.33.03-.6.04-.7.01-.02-.12-.02-.25-.03-.38,0-.13-.02-.27-.02-.4,0-.13,0-.25-.03-.39-.03,0-.06,0-.09,0-.16.01-.31.03-.47.04-.59.04-1.17.14-1.75.23-.43.07-.85.17-1.27.25-.03,0-.06,0-.11,0,0-.08,0-.15,0-.22,0-.19,0-.37,0-.56h-.58c-.01.41-.02.73-.02.91-.03.01-.06.03-.09.04-.34.06-.69.13-1.03.18-.24.04-.47.07-.71.1-.17.02-.35.06-.52.07-.42.02-.84.06-1.26.05-.06,0-.13,0-.19,0-.14.42-.16,1.58-.06,2.4,11.17-4.3,17.77,3.32,30.43,4.37.2,0,.4,0,.6.01.24-.39.47-.79.68-1.2,0,0,0,0,0,0,0,0,.04-.06.09-.16,0-.02.02-.03.03-.05,0-.01.01-.03.02-.05.31-.67,1.08-2.41,1.11-2.42.02-.05.04-.08.05-.12.16-.42.32-.84.47-1.26.28-.81.52-1.62.63-2.47.04-.37.07-.73.03-1.1-.01-.1-.02-.21-.03-.31.05-.04.1-.08.15-.11,1.55-1.16,3.1-2.32,4.65-3.48,1.38-1.03,2.76-2.07,4.14-3.1.05-.03.1-.06.13-.12-.03-.04-.07-.07-.11-.11Z"/>
      </g>
    </g>
    <path class="cls-4" d="m25.44,48.27c-.04-.17-.07-.39-.1-.56-.86.33-1.75.73-2.68,1.22.93-.23,1.85-.47,2.78-.66Z"/>
    <g>
      <path class="cls-7" d="m42.22,30.27s.01-.02.02-.02c.01,0,.02,0,.03,0,4.29.69,8.58,1.38,12.86,2.07.03,0,.07.02.1.02.03.15.02.36-.04.84-.03.27-.05.55-.1.82-.04.28-.11.55-.16.82.03.04.06.01.08,0,.03,0,.06-.02.08-.03.28-.1.57-.19.86-.24.19-.03.38-.06.57-.08.03,0,.06,0,.09,0,.02.05.04.1.05.15.18.66.32,1.33.39,2.01.06.61.07,1.22.01,1.84-.06.65-.18,1.28-.39,1.9-.19.57-.43,1.11-.75,1.62-.03.05-.07.11-.11.16,0,0-.02.01-.03.02,0,0-.01,0-.02,0-.44-.25-.92-.37-1.4-.48-.6-.14-1.2-.24-1.81-.31-.46-.05-.92-.08-1.38-.12-.8-.06-1.6-.07-2.4-.06-.6,0-1.2.04-1.8.09-.53.04-1.06.11-1.58.19-1.03.16-2.04.38-3.03.73-.06.02-.12.04-.18.06-.04-.03-.01-.06,0-.08.01-.04.03-.07.05-.11.26-.53.5-1.08.71-1.64.32-.85.58-1.71.75-2.6.1-.55.18-1.1.2-1.65.03-.54.02-1.09-.04-1.63-.15-1.45-.61-2.79-1.45-3.99-.06-.08-.12-.16-.18-.24-.02-.02-.03-.05-.05-.07Z"/>
      <path class="cls-7" d="m53.87,20.52c.24.42.46.84.67,1.26.02.05.04.1.04.15.04.33.08.66.11.99.04.38.08.75.12,1.13.03.3.06.59.09.89.03.33.06.66.09.99.03.35.06.7.08,1.05.03.45.07.91.09,1.36.03.44.05.89.06,1.33.02.41.02.82.04,1.23,0,.04,0,.09-.01.15-.03-.02-.06-.02-.07-.04-.88-.69-1.88-1.13-2.94-1.44-.83-.24-1.67-.42-2.53-.54-.5-.07-1-.11-1.5-.14-.71-.05-1.42-.05-2.14-.02-.51.02-1.01.06-1.52.13-.65.08-1.29.2-1.93.36-.08.02-.16.04-.24.06-.02,0-.04,0-.08,0,.03-.04.05-.07.07-.1.58-.74,1.02-1.55,1.37-2.42.4-1,.69-2.03.89-3.09.17-.92.25-1.84.24-2.77,0-.86-.09-1.7-.29-2.54-.03-.15-.08-.29-.12-.44,0-.03,0-.05-.01-.08.02,0,.02-.01.03-.01.01,0,.02,0,.03,0,3.09.95,6.19,1.82,9.34,2.54Z"/>
      <path class="cls-7" d="m43.44,34.61c.01.08.02.15.03.22.04.53.04,1.06,0,1.59-.05.62-.15,1.24-.29,1.85-.27,1.16-.68,2.28-1.19,3.36-.15.32-.32.64-.48.96-.02.05-.05.09-.08.14-.18-.02-.35-.04-.53-.06-.33-.03-.66-.07-.99-.09-.92-.06-1.84-.07-2.77-.05-.43,0-.86.02-1.3.05-.43.03-.86.07-1.29.12-.62.07-1.22.18-1.83.33-.03,0-.06,0-.09,0,0,0,0,0-.02-.01.01-.04.03-.08.04-.13.17-.46.27-.93.34-1.41.07-.55.08-1.09.07-1.64,0-.57-.05-1.14-.12-1.71-.09-.73-.21-1.44-.36-2.16-.16-.74-.34-1.47-.55-2.19-.01-.04-.02-.08-.03-.13.04,0,.08-.01.11,0,.61.05,1.21.11,1.81.16.48.04.97.08,1.45.12.48.04.95.08,1.43.13.34.03.69.05,1.03.08.48.04.95.08,1.43.12.31.03.63.05.94.08.38.03.76.07,1.13.1.33.03.66.05,1,.08.32.03.64.05.96.08.04,0,.08.01.14.02Z"/>
      <path class="cls-7" d="m32.38,32.55c.07-.15.13-.27.18-.38.57-1.21.97-2.48,1.2-3.8.09-.56.15-1.12.18-1.69.02-.55,0-1.1-.05-1.64-.07-.66-.19-1.31-.42-1.93-.02-.05-.04-.11-.06-.17.06-.04.11,0,.15,0,.38.08.75.17,1.13.25,1.17.26,2.35.53,3.52.79,1.28.29,2.56.57,3.85.86.07.02.14.04.2.05.14,0,.2.09.25.2.21.49.43.97.64,1.46.03.07.06.14.09.21.03.06.03.11,0,.17-.06.12-.11.25-.17.37-.31.66-.67,1.28-1.13,1.85-.11.14-.23.27-.34.4-.03.04-.07.07-.12.11-.2-.03-.4-.06-.63-.1.03.04.04.06.06.08.09.08.17.16.27.23.39.31.71.69.99,1.11.44.66.76,1.37.98,2.12.01.04.02.08.03.11-.05.04-.08,0-.12,0-.65-.26-1.31-.49-1.99-.69-.83-.24-1.67-.44-2.53-.57-.48-.07-.96-.12-1.45-.16-.6-.05-1.19-.06-1.79-.02-.88.05-1.74.22-2.54.59-.1.05-.2.1-.3.15-.02,0-.04.02-.1.04Z"/>
      <path class="cls-7" d="m56.13,21.76c.05.04.09.07.12.1.28.28.57.55.85.84,1.98,2.08,3.62,4.41,4.99,6.94.89,1.64,1.67,3.33,2.3,5.08.03.07.05.14.07.21-.03.04-.05.02-.07,0-.97-.61-2.03-1.04-3.11-1.43-.7-.25-1.41-.46-2.13-.62-.65-.14-1.3-.24-1.96-.23-.03,0-.07,0-.09,0-.04-.04-.03-.08-.02-.11.03-.24.06-.49.08-.73.03-.31.05-.63.07-.94.01-.36.02-.72.01-1.09,0-.5-.03-.99-.08-1.49-.04-.42-.07-.85-.12-1.27-.05-.47-.11-.94-.19-1.41-.1-.65-.21-1.3-.34-1.95-.11-.6-.25-1.19-.37-1.78,0-.03,0-.07-.02-.13Z"/>
      <path class="cls-7" d="m35.51,15.29c.06.01.11.02.15.03.72.21,1.44.41,2.15.62,1.25.37,2.5.74,3.74,1.11.24.07.19.02.29.26.41,1.03.71,2.09.88,3.18.11.69.16,1.39.11,2.1-.02.41-.07.81-.17,1.21,0,.03-.03.06-.05.11-.02-.05-.04-.08-.06-.11-.23-.53-.6-.95-1.07-1.29-.39-.28-.82-.47-1.27-.62-.71-.24-1.44-.36-2.18-.39-.47-.02-.93-.02-1.4.01-.57.04-1.13.1-1.68.22-.3.06-.6.14-.9.21-.03,0-.07,0-.12.02.02-.03.02-.06.04-.07.63-.74,1.02-1.6,1.29-2.52.19-.65.32-1.3.38-1.98.05-.53.05-1.05-.03-1.57-.02-.14-.06-.27-.08-.41,0-.03-.01-.06-.02-.12Z"/>
      <path class="cls-7" d="m53.88,19.22c-.07-.07-.1-.15-.14-.22-.14-.28-.33-.53-.53-.76-.33-.37-.7-.68-1.13-.93-.62-.35-1.28-.59-1.98-.72-.63-.12-1.26-.16-1.9-.13-.8.04-1.59.16-2.37.36-.28.07-.56.16-.84.24-.03,0-.06.02-.12.03.02-.05.03-.07.04-.09.71-1.03,1.14-2.18,1.44-3.38.11-.46.2-.93.23-1.4.04-.54.03-1.09-.1-1.62,0-.03-.01-.06-.02-.1.08,0,.14.03.19.05.61.24,1.21.48,1.82.73,1.3.52,2.6,1.05,3.9,1.57.11.05.2.11.27.21.26.4.48.83.64,1.28.28.77.48,1.56.58,2.38.07.55.1,1.11.09,1.66,0,.24-.02.48-.03.72,0,.04-.02.07-.03.13Z"/>
      <path class="cls-7" d="m32.47,31.21c-.08.34-.71,1.64-.93,1.92-.05,0-.1,0-.15,0-.03.04,0,.07,0,.1.33,1.01.59,2.04.8,3.08.02.08.03.16.05.24,0,.04,0,.08,0,.12-.07.01-.12-.02-.18-.03-.3-.09-.6-.19-.91-.27-.35-.09-.71-.14-1.07-.17-.46-.04-.91-.05-1.37-.03-.46.02-.91.07-1.36.16-.45.09-.9.19-1.35.28-.03,0-.06.01-.1.02.01-.03.02-.05.03-.07.32-.39.52-.84.69-1.31.17-.49.28-.99.38-1.49.11-.54.17-1.1.22-1.65.05-.58.07-1.17.07-1.75,0-.05,0-.09.01-.15.05.01.1.02.14.03.52.15,1.04.3,1.57.44.72.19,1.46.34,2.2.43.38.05.77.09,1.15.08.02,0,.05,0,.08,0Z"/>
      <path class="cls-7" d="m60.36,33.68c.08.26.16.51.22.79-1.66-.53-3.34-.63-5.04-.28,0-.05,0-.09,0-.13.09-.58.13-1.17.16-1.76.01-.34.02-.69.02-1.03,0-.77-.03-1.53-.07-2.29-.04-.67-.07-1.34-.12-2.01-.05-.73-.13-1.47-.19-2.2-.05-.51-.1-1.02-.15-1.53-.03-.33-.07-.66-.11-.99,0-.02,0-.04,0-.09.03.03.05.04.06.06.31.54.63,1.08.94,1.62.03.05.05.11.06.16.1.56.2,1.13.28,1.69.08.5.14,1.01.2,1.51.05.44.09.88.12,1.33.04.57.07,1.14.07,1.72,0,.62-.03,1.24-.11,1.85-.04.29-.1.59-.15.88-.01.06-.02.12-.04.2.05,0,.09,0,.13,0,.16-.03.32-.06.49-.07.25-.02.49,0,.73.03.82.09,1.61.28,2.39.51.04.01.08.03.12.04Z"/>
      <path class="cls-7" d="m32.29,26.99c.02.05.05.11.07.17.2.54.34,1.09.45,1.65.05.27.1.54.15.81.02.1.01.2-.02.29-.02.05-.04.1-.06.16-.03-.02-.06-.03-.08-.05-.53-.46-1.16-.74-1.85-.88-.99-.21-1.96-.15-2.92.17-.05.02-.1.03-.14.04-.04-.03-.02-.05-.02-.07.19-.43.29-.89.37-1.35.1-.54.15-1.09.18-1.64,0-.04.01-.08.02-.12.17,0,3.32.67,3.84.8Z"/>
      <path class="cls-7" d="m42.07,42.83c.22-.16,1.84-.63,2.22-.66,0,.08,0,.08-.04.17-.16.34-.35.66-.63.92-.26-.08-.51-.17-.76-.24-.25-.07-.51-.13-.78-.19Z"/>
      <path class="cls-7" d="m32.26,33.18c.41-.3.84-.49,1.3-.64.02.04.03.07.04.1.03.22.05.44.08.67-.05,0-.09.01-.13.01-.16-.01-.33-.02-.49-.04-.25-.02-.5-.04-.75-.07-.01,0-.02,0-.06-.03Z"/>
      <path class="cls-7" d="m42.64,29.85c.51-.17,1.02-.27,1.54-.35.09.19.17.48.16.61-.02,0-.03,0-.05,0-.55-.09-1.1-.18-1.65-.27Z"/>
    </g>
    <path class="cls-7" d="m23.83,43.97s1.97-1.51,2.1-3.89.11-2.5.11-2.5c0,0,.77.52,3.35.15,2.57-.37,2.62-.15,2.62-.15,0,0,.52-.08.46,1.97s-.46,4.07-.46,4.07l-8.18.34Z"/>
    <g>
      <path class="cls-8" d="m29.94,26.28c0-.65,0-1.29.01-1.94-.08-.02-.14-.03-.2,0,0,.05,0,.11-.01.17-.01.39-.02.77-.03,1.16,0,.18,0,.37-.01.55l.25.06Z"/>
      <path class="cls-8" d="m29.61,29.2c0,.21-.01.42-.02.64,0,.17,0,.34,0,.51,0,.04.01.08.02.11.05.01.09.02.13.03.04,0,.08,0,.12.01.01-.43.03-.87.04-1.3h-.28Z"/>
    </g>
  </g>
</svg>