<?xml version="1.0" encoding="utf-8"?>
<!-- Generator: Adobe Illustrator 27.2.0, SVG Export Plug-In . SVG Version: 6.00 Build 0)  -->
<svg version="1.1" id="Layer_1" xmlns="http://www.w3.org/2000/svg" xmlns:xlink="http://www.w3.org/1999/xlink" x="0px" y="0px"
	 viewBox="0 0 73.8 73.8" style="enable-background:new 0 0 73.8 73.8;" xml:space="preserve">
<style type="text/css">
	.st0{fill:#0090C9;}
	.st1{fill:#00649B;}
	.st2{fill:#00467D;}
	.st3{fill:#0076AE;}
	.st4{fill:#C38C63;}
	.st5{fill:#906A47;}
	.st6{fill:#856547;}
	.st7{fill:#D9A576;}
</style>
<g>
	<g>
		<path class="st0" d="M27.1,45.3c6.8-3.7,15.7,1.1,21.8,2.9c3.3,1,10,2.1,12.2-0.5c-0.1,0.4-0.3,0.7-0.6,1c-2.2,2.4-6.7,2.7-10,2.3
			C42.9,50,35.6,44.3,27.1,45.3L27.1,45.3z"/>
		<path class="st1" d="M14.5,50.8c3.4-1.6,7-1.6,10.6-0.9c7.7,1.5,10.4,4.6,18.3,5.4c2.9,0.2,4.7-0.1,6.4-0.2
			c-5.9,2.4-10.3,2.1-15.6,0.3c-4.1-1.4-12.9-5.4-19.6-3.4C13.2,52.5,13,51.6,14.5,50.8z"/>
		<path class="st2" d="M15.3,53.7c0,0,3.7-0.2,5.6,0c7.8,1,10.6,4,18.6,4.2c2.9,0,4.7-0.4,6.4-0.6c-5.8,2.8-10.1,2.8-15.5,1.3
			c-3.1-0.8-8.9-3.1-14.4-3C15.3,55.7,15.3,53.7,15.3,53.7z"/>
		<path class="st3" d="M60.3,51.8c0.4-0.3,1-0.4,1.1-0.8c0.6-1.5,0.4-1.3,0-1.9c-0.2-0.3-0.7,0.4-1.2,0.7c-2.2,1.5-5.6,2.4-10.2,2.3
			c0,0,0,0,0,0c-0.5,0.7-1.2,1.8-1.6,2.4C53.6,54.8,57.6,53.6,60.3,51.8z"/>
	</g>
	<g>
		<path class="st4" d="M39.2,8.6c-0.2-0.1-1.5-1.4-0.3-3.1c-0.5,0.4-1.2,0.7-2,0.7s-1.5-0.3-2-0.8c0.3,0.6,0.7,1.8-0.4,3.2h0
			c0.8-0.1,1.6-0.1,2.5-0.1C37.7,8.5,38.4,8.5,39.2,8.6z"/>
		<path class="st5" d="M38.8,5.5C39.5,4.9,40,4.1,40,3.1C40,1.4,38.6,0,36.9,0s-3.1,1.4-3.1,3.1c0,0.9,0.4,1.8,1.1,2.3
			c0.5,0.5,1.3,0.8,2,0.8S38.3,5.9,38.8,5.5L38.8,5.5z"/>
		<path class="st4" d="M8.6,34.7c-0.1,0.2-1.4,1.5-3.1,0.3c0.4,0.5,0.7,1.2,0.7,2s-0.3,1.5-0.8,2c0.6-0.3,1.8-0.7,3.2,0.4v0
			c-0.1-0.8-0.1-1.6-0.1-2.5C8.5,36.1,8.6,35.4,8.6,34.7L8.6,34.7z"/>
		<path class="st5" d="M5.5,35c-0.6-0.7-1.4-1.1-2.4-1.1C1.4,33.9,0,35.3,0,37s1.4,3.1,3.1,3.1c0.9,0,1.8-0.4,2.3-1.1
			c0.5-0.5,0.8-1.3,0.8-2S5.9,35.6,5.5,35L5.5,35z"/>
		<path class="st4" d="M34.7,65.2c0.2,0.1,1.5,1.4,0.3,3.1c0.5-0.4,1.2-0.7,2-0.7s1.5,0.3,2,0.8c-0.3-0.6-0.7-1.8,0.4-3.2h0
			c-0.8,0.1-1.6,0.1-2.5,0.1C36.1,65.3,35.4,65.3,34.7,65.2L34.7,65.2z"/>
		<path class="st5" d="M35,68.3c-0.7,0.6-1.1,1.4-1.1,2.4c0,1.7,1.4,3.1,3.1,3.1s3.1-1.4,3.1-3.1c0-0.9-0.4-1.8-1.1-2.3
			c-0.5-0.5-1.3-0.8-2-0.8S35.6,67.9,35,68.3L35,68.3z"/>
		<path class="st4" d="M68.4,34.8c-0.6,0.3-1.8,0.7-3.2-0.4v0c0.1,0.8,0.1,1.6,0.1,2.5c0,0.8,0,1.5-0.1,2.2c0.1-0.2,1.4-1.5,3.1-0.3
			c-0.4-0.5-0.7-1.2-0.7-2S67.9,35.4,68.4,34.8z"/>
		<path class="st5" d="M70.7,33.8c-0.9,0-1.8,0.4-2.3,1.1c-0.5,0.5-0.8,1.3-0.8,2s0.3,1.4,0.7,2c0.6,0.7,1.4,1.1,2.4,1.1
			c1.7,0,3.1-1.4,3.1-3.1S72.4,33.7,70.7,33.8L70.7,33.8z"/>
		<path class="st4" d="M18.5,15.3c-0.2,0-2.1,0.1-2.5-1.9c-0.1,0.7-0.4,1.4-0.9,1.9c-0.5,0.6-1.3,0.8-2,0.9c0.6,0.2,1.7,0.8,2,2.5
			C16.2,17.4,17.3,16.3,18.5,15.3L18.5,15.3z"/>
		<path class="st5" d="M16,13.3c0.1-0.9-0.2-1.8-0.9-2.5c-1.2-1.2-3.2-1.2-4.4,0c-1.2,1.2-1.2,3.2,0,4.4c0.7,0.7,1.5,1,2.4,0.9
			c0.7,0,1.4-0.3,2-0.9C15.7,14.7,16,14,16,13.3z"/>
		<path class="st4" d="M15.3,55.3c0,0.2,0.1,2.1-2,2.5c0.7,0.1,1.4,0.4,1.9,0.9c0.5,0.5,0.9,1.3,0.9,2c0.2-0.6,0.8-1.7,2.5-2l0,0
			C17.4,57.6,16.3,56.5,15.3,55.3L15.3,55.3z"/>
		<path class="st5" d="M13.4,57.8c-0.9-0.1-1.8,0.2-2.5,0.9c-1.2,1.2-1.2,3.2,0,4.4s3.2,1.2,4.4,0c0.7-0.7,1-1.5,0.9-2.4
			c0-0.7-0.4-1.4-0.9-2C14.7,58.2,14,57.9,13.4,57.8L13.4,57.8z"/>
		<path class="st4" d="M55.3,58.5c0.2,0,2.1-0.1,2.4,2c0.1-0.7,0.4-1.4,0.9-1.9c0.6-0.5,1.3-0.8,2-0.9c-0.6-0.2-1.7-0.8-2-2.5l0,0
			C57.7,56.4,56.5,57.5,55.3,58.5L55.3,58.5z"/>
		<path class="st5" d="M57.8,60.5c-0.1,0.9,0.2,1.8,0.9,2.5c1.2,1.2,3.2,1.2,4.4,0c1.2-1.2,1.2-3.2,0-4.4c-0.7-0.7-1.5-1-2.4-0.9
			c-0.7,0-1.4,0.3-2,0.9C58.1,59.1,57.9,59.8,57.8,60.5L57.8,60.5z"/>
		<path class="st4" d="M58.5,18.5c0-0.2-0.1-2.1,2-2.5c-0.7-0.1-1.4-0.4-1.9-0.9c-0.6-0.6-0.8-1.3-0.9-2c-0.2,0.6-0.8,1.7-2.5,2
			C56.4,16.2,57.5,17.3,58.5,18.5L58.5,18.5z"/>
		<path class="st5" d="M60.5,16c0.9,0.1,1.8-0.2,2.5-0.9c1.2-1.2,1.2-3.2,0-4.4c-1.2-1.2-3.2-1.2-4.4,0c-0.7,0.7-1,1.5-0.9,2.4
			c0.1,0.7,0.3,1.4,0.9,2C59.1,15.7,59.8,16,60.5,16L60.5,16z"/>
		<path class="st4" d="M65.2,34.5c-0.5-6.1-2.9-11.6-6.7-16c-1-1.2-2.1-2.3-3.3-3.3c-4.4-3.7-9.9-6.1-16-6.6
			c-0.7-0.1-1.5-0.1-2.2-0.1c-0.8,0-1.6,0-2.5,0.1c-6.1,0.5-11.6,2.9-16,6.7c-1.2,1-2.3,2.1-3.3,3.3c-3.7,4.4-6.1,9.9-6.6,16
			c-0.1,0.7-0.1,1.5-0.1,2.2c0,0.8,0,1.6,0.1,2.5c0.5,6.1,3,11.6,6.7,16c1,1.2,2.1,2.3,3.3,3.3c4.4,3.7,9.9,6.1,16,6.6
			c0.7,0.1,1.5,0.1,2.2,0.1c0.8,0,1.6,0,2.5-0.1c6.1-0.5,11.6-3,16-6.7c1.2-1,2.3-2.1,3.3-3.3c3.7-4.4,6.1-9.9,6.5-16
			c0.1-0.7,0.1-1.5,0.1-2.2C65.3,36.1,65.3,35.3,65.2,34.5L65.2,34.5z M36.9,63.6c-14.7,0-26.6-11.9-26.6-26.7s11.9-26.7,26.6-26.7
			s26.7,11.9,26.7,26.7S51.6,63.6,36.9,63.6z"/>
		<path class="st5" d="M36.9,10.3c-14.7,0-26.6,11.9-26.6,26.7s11.9,26.6,26.6,26.6s26.6-11.9,26.6-26.7S51.6,10.3,36.9,10.3z
			 M36.9,60.5c-13,0-23.6-10.6-23.6-23.6s10.6-23.6,23.6-23.6s23.6,10.6,23.6,23.6S50,60.5,36.9,60.5z"/>
	</g>
	<g>
		<path class="st6" d="M43.8,53.8c-7.8-1.7-12.5-5.8-20.4-6c-1.5,0-2.9,0.2-4.2,0.4c0,0,0,0.1,0,0.1c0,0,0.3,1,0.3,1
			c0.1,0.2,0.2,0.5,0.2,0.7c0,0.1,0.1,0.1,0.1,0.1c0,0,0.1,0,0.1,0c0.6,0.2,1.1,0.4,1.7,0.6c2.9,1,5.8,1.8,8.7,2.6
			c1.3,0.3,2.7,0.7,4,1c0.9,0.2,1.7,0.4,2.6,0.5c0.6,0.1,1.2,0.2,1.8,0.3c0.4,0.1,0.8,0.1,1.2,0.2c0.4,0.1,0.8,0.1,1.2,0.2
			c0.3,0,0.7,0.1,1,0.1c0.3,0,0.6,0.1,0.9,0.1c0.4,0,0.8,0.1,1.2,0.1c0.5,0,1,0,1.5,0.1c0.3,0,0.6,0,0.8-0.2c0.4-0.2,0.7-0.4,1-0.7
			c0.3-0.2,0.5-0.5,0.7-0.7C47,54.3,45.4,54.1,43.8,53.8L43.8,53.8z"/>
		<g>
			<path class="st6" d="M23.5,37.3c0-0.2,0-0.3,0-0.5c0,0,0-0.1,0-0.1c-0.1,0-0.2,0-0.4,0c0,0,0,0.2,0,0.6L23.5,37.3L23.5,37.3z"/>
			<path class="st6" d="M62.1,36c-0.1,0-0.1,0.1-0.2,0.1c-0.8,0.5-1.6,1-2.4,1.5c-1.5,0.9-2.9,1.8-4.4,2.7c-1.2,0.8-2.5,1.5-3.7,2.3
				c-0.1,0.1-0.2,0.1-0.3,0.1c-0.4,0-0.8,0-1.2,0c-0.6,0-1.2,0-1.8,0c-0.6,0-1.2,0-1.8,0c-0.2,0-0.3,0-0.4,0c-0.3,0-0.5,0-0.8,0.1
				c-0.3,0-0.7,0.1-1,0.1c-0.3,0-0.6,0-0.8,0.1c0,0-0.1,0-0.1,0c0-0.1,0-0.1,0-0.2c0-0.9,0-1.8,0-2.7c0-1.4,0-2.7-0.1-4.1
				c0-1.3,0-2.5-0.1-3.8c0-0.4,0-0.8,0-1.1c0,0,0-0.1,0-0.2c0,0,0,0,0.1,0c0.1,0,0.2,0,0.3,0c0.1,0,0.3-0.1,0.4-0.1
				c0,0,0.1,0,0.1-0.1c0,0,0-0.1,0-0.1c0.1,0,0.2,0,0.3-0.1c0.1,0,0.2-0.1,0.2-0.1c0.2-0.1,0.2-0.2,0-0.3c-0.1,0-0.1-0.1-0.2-0.1
				c-0.1,0-0.3-0.1-0.4-0.1c-0.2,0-0.5,0-0.7-0.1c-0.1,0-0.2,0-0.2,0c0,0,0-0.1,0-0.1c0-0.5,0-0.9,0-1.4c0-1.8-0.1-3.5-0.1-5.3
				c0-1.4,0-2.9-0.1-4.3c0,0,0-0.1,0-0.2c0,0,0.1,0,0.1,0c0.2,0,0.4,0,0.6-0.1c0.1,0,0.2-0.1,0.3-0.2c0.1,0,0.1-0.1,0-0.2
				c0,0,0,0,0,0c0.1-0.1,0.2-0.1,0.3-0.1c0.1-0.1,0.1-0.2,0-0.2c-0.1-0.1-0.3-0.1-0.5-0.2c-0.2,0-0.5-0.1-0.8-0.1
				c-0.1,0-0.2,0-0.3,0c0,0,0-0.1,0-0.1c0-0.3,0-0.6,0-0.9c0-1,0-2.1,0-3.1c0-0.7,0-1.4,0-2.1c0-0.2,0-0.4,0-0.6c0-0.1,0-0.1,0-0.2
				c0.1-0.1,0.1-0.2,0.2-0.4c0.1-0.2,0.2-0.4,0.3-0.6c0.1-0.1,0.2-0.2,0.2-0.2c0.1-0.1,0.3-0.1,0.4-0.1c0.1,0,0.2,0.1,0.3,0.1
				C44.2,9,44.3,9,44.5,9.1c0.2,0.1,0.5,0.3,0.7,0.4c0.2,0.1,0.5,0.2,0.8,0.2c0.3,0.1,0.6,0,0.9-0.1c0.1-0.1,0.2-0.1,0.3-0.2
				c0.1-0.1,0.3-0.2,0.4-0.3c0.3-0.2,0.6-0.5,0.9-0.7C48.7,8.2,48.8,8.1,49,8c0.2-0.1,0.4-0.1,0.6-0.1c0.2,0,0.3,0.1,0.5,0.1
				c0.2,0.1,0.4,0.2,0.6,0.3s0.3,0.3,0.5,0.4c0,0,0,0,0.1,0.1c0,0,0,0,0,0c0,0,0,0,0,0c-0.1-0.3-0.2-0.6-0.5-0.8
				c-0.1-0.1-0.2-0.2-0.3-0.2c0,0,0-0.1-0.1-0.1c0.1,0,0.1,0,0.1,0c0.1,0,0.2,0.1,0.3,0.1c0.2,0.1,0.3,0.1,0.5,0.1
				c0,0,0.1,0,0.1-0.1c-0.3-0.3-0.7-0.6-1-0.7C50.3,7,50.2,7,50.1,6.9c-0.2-0.1-0.4-0.1-0.7-0.1c-0.3,0-0.6,0.1-0.8,0.2
				c-0.2,0.1-0.4,0.2-0.5,0.4c-0.2,0.1-0.3,0.2-0.5,0.3c-0.2,0.2-0.4,0.3-0.7,0.4c-0.3,0.1-0.7,0.2-1,0.1c-0.2-0.1-0.4-0.1-0.6-0.2
				c-0.2-0.1-0.4-0.2-0.6-0.3c-0.1-0.1-0.3-0.2-0.4-0.2c-0.1-0.1-0.3-0.1-0.4-0.2c-0.2,0-0.4,0-0.6,0.1c-0.2,0.1-0.3,0.2-0.4,0.4
				c-0.1,0.1-0.1,0.2-0.2,0.3c0,0,0,0.1-0.1,0c0-0.2,0-0.4,0-0.6c-0.1,0-0.2,0-0.2,0c0,0.1,0,0.1,0,0.2c0,2.5,0,5-0.1,7.6
				c0,0.6,0,1.2,0,1.8c0,0.1,0,0.1,0,0.2c0,0-0.1,0-0.1,0c-0.2,0-0.3,0-0.5,0c-0.2,0-0.4,0-0.6,0.1c-0.1,0-0.3,0.1-0.4,0.2
				c-0.1,0-0.1,0.1,0,0.2c0.1,0.1,0.2,0.1,0.3,0.2c0.1,0,0.1,0,0.2,0c-0.1,0.1,0,0.2,0.1,0.2c0.1,0.1,0.2,0.1,0.3,0.1
				c0.2,0,0.3,0,0.5,0.1c0.1,0,0.2,0,0.3,0c0,0.1,0,0.1,0,0.2c0,2.9,0,5.8-0.1,8.7c0,0.7,0,1.4,0,2.1c0,0.1,0,0.1,0,0.2
				c-0.1,0-0.1,0-0.2,0c-0.2,0-0.3,0-0.5,0c-0.2,0-0.4,0.1-0.6,0.1c-0.1,0-0.2,0.1-0.2,0.1c-0.1,0.1-0.1,0.2,0,0.3
				c0.1,0.1,0.2,0.1,0.3,0.1c0.1,0,0.3,0.1,0.4,0.1c0,0.1,0.1,0.2,0.2,0.2c0.1,0,0.2,0.1,0.4,0.1c0.1,0,0.1,0,0.2,0c0,0,0,0,0,0.1
				c0,4-0.1,8.1-0.1,12.1c0,0,0,0,0,0.1c0,0-0.1,0-0.2,0c-0.7,0.1-1.3,0.2-2,0.4c-1.6,0.3-3.2,0.7-4.8,1c-0.6,0.1-1.2,0.2-1.8,0.3
				c-0.5,0.1-1,0.2-1.5,0.2c-0.2,0-0.4,0-0.6,0.1c0,0-0.1,0-0.1,0c0-3.8,0-7.7,0-11.6c0,0,0,0,0-0.1c0,0,0.1,0,0.1,0
				c0.1,0,0.2,0,0.3,0c0.1,0,0.2,0,0.3-0.1c0.1-0.1,0.1-0.1,0-0.2c0,0,0,0,0,0c0.2,0,0.4,0,0.5-0.2c0-0.1-0.1-0.1-0.1-0.1
				c-0.1,0-0.2-0.1-0.3-0.1c-0.2,0-0.4,0-0.6-0.1c0,0-0.1,0-0.2,0c0,0,0,0,0,0c0,0,0,0,0-0.1c0-3,0-5.9,0-8.9c0,0,0,0,0,0
				c0,0,0,0,0,0c0,0,0.1,0,0.2,0c0.2,0,0.3-0.1,0.4-0.1c0.1,0,0.2-0.1,0.2-0.2c0,0,0-0.1,0-0.1c0.1,0,0.1,0,0.2,0
				c0.1,0,0.2-0.1,0.2-0.1c0.1-0.1,0.1-0.1,0-0.2c0,0-0.1-0.1-0.1-0.1c-0.1-0.1-0.3-0.1-0.4-0.1c-0.1,0-0.3,0-0.4,0
				c-0.1,0-0.2,0-0.2,0c0,0,0,0,0,0c0,0,0,0,0,0c0-2.6,0-5.3,0-7.9c0,0,0,0,0,0c0,0,0,0,0,0c0.1,0,0.1-0.1,0.2-0.1
				c0.1-0.1,0.1-0.2,0.2-0.2c0.2-0.2,0.5-0.3,0.7-0.2c0.2,0.1,0.4,0.1,0.5,0.2c0.3,0.1,0.7,0.2,1,0.2c0.2,0,0.4,0,0.6,0
				c0.2-0.1,0.4-0.1,0.6-0.2c0.3-0.1,0.5-0.2,0.8-0.4c0.1-0.1,0.2-0.1,0.4-0.1c0.2-0.1,0.4-0.1,0.7-0.1c0.2,0,0.5,0.1,0.7,0.2
				c0.2,0.1,0.3,0.1,0.5,0.2c0,0,0,0,0.1,0c-0.1-0.2-0.3-0.3-0.5-0.4c0-0.1,0-0.1,0.1-0.1c0.2,0,0.3,0.1,0.5,0.1c0,0,0.1,0,0.1,0
				c0,0,0,0-0.1,0c-0.3-0.1-0.6-0.3-1-0.3c-0.4-0.1-0.8-0.1-1.2,0c-0.2,0.1-0.4,0.1-0.5,0.2c-0.2,0.1-0.3,0.1-0.5,0.2
				c-0.5,0.2-0.9,0.2-1.4,0.1c-0.2-0.1-0.5-0.1-0.7-0.2c-0.2-0.1-0.3-0.1-0.5-0.1c-0.1,0-0.3-0.1-0.4,0c-0.3,0-0.5,0.1-0.7,0.4
				c0,0,0,0.1-0.1,0.1c0-0.1,0-0.2,0-0.2h-0.2c0,0,0,0.1,0,0.1c0,0.1,0,0.2,0,0.3c0,0.8,0,1.7-0.1,2.5c0,1.2-0.1,2.4-0.1,3.6
				c0,0.7,0,1.5,0,2.2c0,0.1,0,0.3,0,0.4c0,0,0,0.1,0,0.1c-0.1,0-0.2,0-0.3,0c-0.3,0-0.6,0.1-1,0.2c-0.1,0-0.2,0.1-0.2,0.1
				c0,0.1,0,0.1,0,0.1c0.1,0.1,0.2,0.1,0.3,0.2c0,0,0.1,0,0.1,0c0,0.1,0,0.1,0,0.2c0.1,0.1,0.2,0.1,0.3,0.1c0.2,0,0.3,0.1,0.5,0.1
				c0.1,0,0.1,0,0.2,0c0,0,0,0,0,0.1c0,0.9,0,1.8-0.1,2.7c0,1.2-0.1,2.4-0.1,3.5c0,0.8,0,1.5,0,2.2c0,0.1,0,0.2,0,0.3
				c0,0,0,0.1,0,0.1c-0.1,0-0.1,0-0.2,0c-0.2,0-0.4,0-0.5,0c-0.1,0-0.2,0-0.4,0.1c-0.1,0-0.1,0.1-0.2,0.1c0,0,0,0.1,0,0.1
				s0.1,0.1,0.1,0.1c0.1,0,0.2,0,0.2,0.1s0.2,0,0.2,0c0,0,0,0,0,0c-0.1,0.1,0,0.1,0,0.2c0.1,0.1,0.1,0.1,0.2,0.1c0.1,0,0.2,0,0.3,0
				c0.1,0,0.1,0,0.2,0c0,0.1,0,0.1,0,0.2c0,0.2,0,0.3,0,0.4c0,0.8,0,1.5,0,2.3c0,0.6,0,1.1,0,1.7c0,1.2-0.1,2.4-0.1,3.6
				c0,0.7,0,1.5,0,2.2c0,0.4,0,0.8,0,1.3c0,0.1,0,0.1,0,0.2c-0.2,0-0.5,0-0.7,0.1s-0.5,0-0.7,0.1s-0.5,0-0.7,0c-0.3,0-0.6,0-0.7,0
				c0-0.1,0-0.2,0-0.4c0-0.1,0-0.3,0-0.4s0-0.2,0-0.4c0,0-0.1,0-0.1,0c-0.2,0-0.3,0-0.5,0c-0.6,0-1.2,0.1-1.8,0.2
				c-0.4,0.1-0.9,0.2-1.3,0.2c0,0-0.1,0-0.1,0c0-0.1,0-0.2,0-0.2c0-0.2,0-0.4,0-0.6h-0.6c0,0.4,0,0.7,0,0.9c0,0-0.1,0-0.1,0
				c-0.3,0.1-0.7,0.1-1,0.2c-0.2,0-0.5,0.1-0.7,0.1c-0.2,0-0.4,0.1-0.5,0.1c-0.4,0-0.8,0.1-1.3,0c-0.1,0-0.1,0-0.2,0
				c-0.1,0.4-0.2,1.6-0.1,2.4c11.2-4.3,17.8,3.3,30.4,4.4c0.2,0,0.4,0,0.6,0c0.2-0.4,0.5-0.8,0.7-1.2l0,0c0,0,0-0.1,0.1-0.2
				c0,0,0,0,0,0c0,0,0,0,0,0c0.3-0.7,1.1-2.4,1.1-2.4c0,0,0-0.1,0-0.1c0.2-0.4,0.3-0.8,0.5-1.3c0.3-0.8,0.5-1.6,0.6-2.5
				c0-0.4,0.1-0.7,0-1.1c0-0.1,0-0.2,0-0.3c0,0,0.1-0.1,0.2-0.1c1.5-1.2,3.1-2.3,4.7-3.5c1.4-1,2.8-2.1,4.1-3.1
				c0.1,0,0.1-0.1,0.1-0.1C62.1,36.1,62.1,36.1,62.1,36L62.1,36z"/>
		</g>
	</g>
	<path class="st3" d="M19.2,48.3c0-0.2-0.1-0.4-0.1-0.6c-0.9,0.3-1.8,0.7-2.7,1.2C17.3,48.7,18.2,48.5,19.2,48.3z"/>
	<g>
		<path class="st7" d="M36,30.3C36,30.3,36,30.2,36,30.3C36,30.2,36,30.2,36,30.3c4.3,0.7,8.6,1.4,12.9,2.1c0,0,0.1,0,0.1,0
			c0,0.2,0,0.4,0,0.8c0,0.3,0,0.5-0.1,0.8c0,0.3-0.1,0.5-0.2,0.8c0,0,0.1,0,0.1,0c0,0,0.1,0,0.1,0c0.3-0.1,0.6-0.2,0.9-0.2
			c0.2,0,0.4-0.1,0.6-0.1c0,0,0.1,0,0.1,0c0,0,0,0.1,0,0.2c0.2,0.7,0.3,1.3,0.4,2c0.1,0.6,0.1,1.2,0,1.8c-0.1,0.7-0.2,1.3-0.4,1.9
			c-0.2,0.6-0.4,1.1-0.8,1.6c0,0-0.1,0.1-0.1,0.2c0,0,0,0,0,0c0,0,0,0,0,0c-0.4-0.2-0.9-0.4-1.4-0.5c-0.6-0.1-1.2-0.2-1.8-0.3
			c-0.5,0-0.9-0.1-1.4-0.1c-0.8-0.1-1.6-0.1-2.4-0.1c-0.6,0-1.2,0-1.8,0.1c-0.5,0-1.1,0.1-1.6,0.2c-1,0.2-2,0.4-3,0.7
			c-0.1,0-0.1,0-0.2,0.1c0,0,0-0.1,0-0.1c0,0,0-0.1,0-0.1c0.3-0.5,0.5-1.1,0.7-1.6c0.3-0.8,0.6-1.7,0.8-2.6c0.1-0.5,0.2-1.1,0.2-1.7
			c0-0.5,0-1.1,0-1.6c-0.2-1.5-0.6-2.8-1.5-4C36.1,30.5,36,30.4,36,30.3C35.9,30.3,35.9,30.3,36,30.3L36,30.3z"/>
		<path class="st7" d="M47.6,20.5c0.2,0.4,0.5,0.8,0.7,1.3c0,0,0,0.1,0,0.1c0,0.3,0.1,0.7,0.1,1c0,0.4,0.1,0.8,0.1,1.1
			c0,0.3,0.1,0.6,0.1,0.9c0,0.3,0.1,0.7,0.1,1c0,0.4,0.1,0.7,0.1,1c0,0.5,0.1,0.9,0.1,1.4c0,0.4,0,0.9,0.1,1.3c0,0.4,0,0.8,0,1.2
			c0,0,0,0.1,0,0.1c0,0-0.1,0-0.1,0C48,30.3,47,29.9,46,29.6c-0.8-0.2-1.7-0.4-2.5-0.5c-0.5-0.1-1-0.1-1.5-0.1c-0.7,0-1.4,0-2.1,0
			c-0.5,0-1,0.1-1.5,0.1c-0.7,0.1-1.3,0.2-1.9,0.4c-0.1,0-0.2,0-0.2,0.1c0,0,0,0-0.1,0c0,0,0-0.1,0.1-0.1c0.6-0.7,1-1.5,1.4-2.4
			c0.4-1,0.7-2,0.9-3.1c0.2-0.9,0.2-1.8,0.2-2.8c0-0.9-0.1-1.7-0.3-2.5c0-0.1-0.1-0.3-0.1-0.4c0,0,0,0,0-0.1c0,0,0,0,0,0s0,0,0,0
			C41.3,18.9,44.4,19.8,47.6,20.5L47.6,20.5z"/>
		<path class="st7" d="M37.2,34.6c0,0.1,0,0.2,0,0.2c0,0.5,0,1.1,0,1.6c0,0.6-0.2,1.2-0.3,1.8c-0.3,1.2-0.7,2.3-1.2,3.4
			c-0.2,0.3-0.3,0.6-0.5,1c0,0,0,0.1-0.1,0.1c-0.2,0-0.3,0-0.5-0.1c-0.3,0-0.7-0.1-1-0.1c-0.9-0.1-1.8-0.1-2.8,0c-0.4,0-0.9,0-1.3,0
			c-0.4,0-0.9,0.1-1.3,0.1c-0.6,0.1-1.2,0.2-1.8,0.3c0,0-0.1,0-0.1,0c0,0,0,0,0,0c0,0,0-0.1,0-0.1c0.2-0.5,0.3-0.9,0.3-1.4
			c0.1-0.5,0.1-1.1,0.1-1.6c0-0.6,0-1.1-0.1-1.7c-0.1-0.7-0.2-1.4-0.4-2.2c-0.2-0.7-0.3-1.5-0.5-2.2c0,0,0-0.1,0-0.1
			c0,0,0.1,0,0.1,0c0.6,0,1.2,0.1,1.8,0.2c0.5,0,1,0.1,1.5,0.1c0.5,0,1,0.1,1.4,0.1c0.3,0,0.7,0,1,0.1c0.5,0,1,0.1,1.4,0.1
			c0.3,0,0.6,0,0.9,0.1c0.4,0,0.8,0.1,1.1,0.1c0.3,0,0.7,0,1,0.1c0.3,0,0.6,0,1,0.1C37.1,34.6,37.1,34.6,37.2,34.6L37.2,34.6z"/>
		<path class="st7" d="M26.1,32.5c0.1-0.2,0.1-0.3,0.2-0.4c0.6-1.2,1-2.5,1.2-3.8c0.1-0.6,0.2-1.1,0.2-1.7c0-0.5,0-1.1,0-1.6
			c-0.1-0.7-0.2-1.3-0.4-1.9c0,0,0-0.1-0.1-0.2c0.1,0,0.1,0,0.2,0c0.4,0.1,0.8,0.2,1.1,0.2c1.2,0.3,2.3,0.5,3.5,0.8
			c1.3,0.3,2.6,0.6,3.8,0.9c0.1,0,0.1,0,0.2,0c0.1,0,0.2,0.1,0.2,0.2c0.2,0.5,0.4,1,0.6,1.5c0,0.1,0.1,0.1,0.1,0.2
			c0,0.1,0,0.1,0,0.2c-0.1,0.1-0.1,0.2-0.2,0.4c-0.3,0.7-0.7,1.3-1.1,1.9c-0.1,0.1-0.2,0.3-0.3,0.4c0,0-0.1,0.1-0.1,0.1
			c-0.2,0-0.4-0.1-0.6-0.1c0,0,0,0.1,0.1,0.1c0.1,0.1,0.2,0.2,0.3,0.2c0.4,0.3,0.7,0.7,1,1.1c0.4,0.7,0.8,1.4,1,2.1c0,0,0,0.1,0,0.1
			c0,0-0.1,0-0.1,0c-0.7-0.3-1.3-0.5-2-0.7c-0.8-0.2-1.7-0.4-2.5-0.6c-0.5-0.1-1-0.1-1.5-0.2c-0.6,0-1.2-0.1-1.8,0
			c-0.9,0-1.7,0.2-2.5,0.6C26.4,32.4,26.3,32.5,26.1,32.5C26.2,32.5,26.2,32.5,26.1,32.5L26.1,32.5z"/>
		<path class="st7" d="M49.9,21.8c0,0,0.1,0.1,0.1,0.1c0.3,0.3,0.6,0.5,0.8,0.8c2,2.1,3.6,4.4,5,6.9c0.9,1.6,1.7,3.3,2.3,5.1
			c0,0.1,0.1,0.1,0.1,0.2c0,0-0.1,0-0.1,0c-1-0.6-2-1-3.1-1.4c-0.7-0.2-1.4-0.5-2.1-0.6c-0.7-0.1-1.3-0.2-2-0.2c0,0-0.1,0-0.1,0
			c0,0,0-0.1,0-0.1c0-0.2,0.1-0.5,0.1-0.7c0-0.3,0-0.6,0.1-0.9c0-0.4,0-0.7,0-1.1c0-0.5,0-1-0.1-1.5c0-0.4-0.1-0.9-0.1-1.3
			c0-0.5-0.1-0.9-0.2-1.4c-0.1-0.6-0.2-1.3-0.3-2c-0.1-0.6-0.2-1.2-0.4-1.8C49.9,21.8,49.9,21.8,49.9,21.8L49.9,21.8z"/>
		<path class="st7" d="M29.2,15.3c0.1,0,0.1,0,0.2,0c0.7,0.2,1.4,0.4,2.2,0.6c1.2,0.4,2.5,0.7,3.7,1.1c0.2,0.1,0.2,0,0.3,0.3
			c0.4,1,0.7,2.1,0.9,3.2c0.1,0.7,0.2,1.4,0.1,2.1c0,0.4-0.1,0.8-0.2,1.2c0,0,0,0.1,0,0.1c0,0,0-0.1-0.1-0.1c-0.2-0.5-0.6-1-1.1-1.3
			c-0.4-0.3-0.8-0.5-1.3-0.6c-0.7-0.2-1.4-0.4-2.2-0.4c-0.5,0-0.9,0-1.4,0c-0.6,0-1.1,0.1-1.7,0.2c-0.3,0.1-0.6,0.1-0.9,0.2
			c0,0-0.1,0-0.1,0c0,0,0-0.1,0-0.1c0.6-0.7,1-1.6,1.3-2.5c0.2-0.6,0.3-1.3,0.4-2c0-0.5,0-1,0-1.6c0-0.1-0.1-0.3-0.1-0.4
			C29.3,15.4,29.3,15.3,29.2,15.3z"/>
		<path class="st7" d="M47.6,19.2c-0.1-0.1-0.1-0.1-0.1-0.2c-0.1-0.3-0.3-0.5-0.5-0.8c-0.3-0.4-0.7-0.7-1.1-0.9
			c-0.6-0.4-1.3-0.6-2-0.7c-0.6-0.1-1.3-0.2-1.9-0.1c-0.8,0-1.6,0.2-2.4,0.4c-0.3,0.1-0.6,0.2-0.8,0.2c0,0-0.1,0-0.1,0
			c0,0,0-0.1,0-0.1c0.7-1,1.1-2.2,1.4-3.4c0.1-0.5,0.2-0.9,0.2-1.4c0-0.5,0-1.1-0.1-1.6c0,0,0-0.1,0-0.1c0.1,0,0.1,0,0.2,0.1
			c0.6,0.2,1.2,0.5,1.8,0.7c1.3,0.5,2.6,1.1,3.9,1.6c0.1,0.1,0.2,0.1,0.3,0.2c0.3,0.4,0.5,0.8,0.6,1.3c0.3,0.8,0.5,1.6,0.6,2.4
			c0.1,0.5,0.1,1.1,0.1,1.7c0,0.2,0,0.5,0,0.7C47.7,19.1,47.6,19.2,47.6,19.2L47.6,19.2z"/>
		<path class="st7" d="M26.2,31.2c-0.1,0.3-0.7,1.6-0.9,1.9c0,0-0.1,0-0.1,0c0,0,0,0.1,0,0.1c0.3,1,0.6,2,0.8,3.1c0,0.1,0,0.2,0,0.2
			c0,0,0,0.1,0,0.1c-0.1,0-0.1,0-0.2,0c-0.3-0.1-0.6-0.2-0.9-0.3c-0.4-0.1-0.7-0.1-1.1-0.2c-0.5,0-0.9,0-1.4,0
			c-0.5,0-0.9,0.1-1.4,0.2s-0.9,0.2-1.4,0.3c0,0-0.1,0-0.1,0c0,0,0,0,0-0.1c0.3-0.4,0.5-0.8,0.7-1.3c0.2-0.5,0.3-1,0.4-1.5
			c0.1-0.5,0.2-1.1,0.2-1.7c0-0.6,0.1-1.2,0.1-1.8c0,0,0-0.1,0-0.1c0,0,0.1,0,0.1,0c0.5,0.1,1,0.3,1.6,0.4c0.7,0.2,1.5,0.3,2.2,0.4
			c0.4,0,0.8,0.1,1.2,0.1C26.1,31.2,26.1,31.2,26.2,31.2L26.2,31.2z"/>
		<path class="st7" d="M54.1,33.7c0.1,0.3,0.2,0.5,0.2,0.8c-1.7-0.5-3.3-0.6-5-0.3c0,0,0-0.1,0-0.1c0.1-0.6,0.1-1.2,0.2-1.8
			c0-0.3,0-0.7,0-1c0-0.8,0-1.5-0.1-2.3c0-0.7-0.1-1.3-0.1-2c0-0.7-0.1-1.5-0.2-2.2c0-0.5-0.1-1-0.2-1.5c0-0.3-0.1-0.7-0.1-1
			c0,0,0,0,0-0.1c0,0,0,0,0.1,0.1c0.3,0.5,0.6,1.1,0.9,1.6c0,0,0,0.1,0.1,0.2c0.1,0.6,0.2,1.1,0.3,1.7c0.1,0.5,0.1,1,0.2,1.5
			c0,0.4,0.1,0.9,0.1,1.3c0,0.6,0.1,1.1,0.1,1.7c0,0.6,0,1.2-0.1,1.9c0,0.3-0.1,0.6-0.2,0.9c0,0.1,0,0.1,0,0.2c0,0,0.1,0,0.1,0
			c0.2,0,0.3-0.1,0.5-0.1c0.2,0,0.5,0,0.7,0c0.8,0.1,1.6,0.3,2.4,0.5C54,33.7,54.1,33.7,54.1,33.7L54.1,33.7z"/>
		<path class="st7" d="M26,27c0,0,0,0.1,0.1,0.2c0.2,0.5,0.3,1.1,0.5,1.6c0,0.3,0.1,0.5,0.2,0.8c0,0.1,0,0.2,0,0.3
			c0,0,0,0.1-0.1,0.2c0,0-0.1,0-0.1,0c-0.5-0.5-1.2-0.7-1.9-0.9c-1-0.2-2-0.1-2.9,0.2c0,0-0.1,0-0.1,0c0,0,0,0,0-0.1
			c0.2-0.4,0.3-0.9,0.4-1.4c0.1-0.5,0.1-1.1,0.2-1.6c0,0,0-0.1,0-0.1C22.3,26.2,25.5,26.8,26,27L26,27z"/>
		<path class="st7" d="M35.8,42.8c0.2-0.2,1.8-0.6,2.2-0.7c0,0.1,0,0.1,0,0.2c-0.2,0.3-0.3,0.7-0.6,0.9c-0.3-0.1-0.5-0.2-0.8-0.2
			C36.3,42.9,36.1,42.9,35.8,42.8L35.8,42.8z"/>
		<path class="st7" d="M26,33.2c0.4-0.3,0.8-0.5,1.3-0.6c0,0,0,0.1,0,0.1c0,0.2,0,0.4,0.1,0.7c0,0-0.1,0-0.1,0c-0.2,0-0.3,0-0.5,0
			C26.5,33.3,26.3,33.2,26,33.2C26,33.2,26,33.2,26,33.2L26,33.2z"/>
		<path class="st7" d="M36.4,29.8c0.5-0.2,1-0.3,1.5-0.4c0.1,0.2,0.2,0.5,0.2,0.6c0,0,0,0,0,0C37.5,30,36.9,29.9,36.4,29.8
			L36.4,29.8z"/>
	</g>
	<path class="st7" d="M17.6,44c0,0,2-1.5,2.1-3.9s0.1-2.5,0.1-2.5s0.8,0.5,3.4,0.2c2.6-0.4,2.6-0.2,2.6-0.2s0.5-0.1,0.5,2
		s-0.5,4.1-0.5,4.1L17.6,44L17.6,44z"/>
	<g>
		<path class="st6" d="M23.7,26.3c0-0.6,0-1.3,0-1.9c-0.1,0-0.1,0-0.2,0c0,0,0,0.1,0,0.2c0,0.4,0,0.8,0,1.2c0,0.2,0,0.4,0,0.5
			L23.7,26.3L23.7,26.3z"/>
		<path class="st6" d="M23.3,29.2c0,0.2,0,0.4,0,0.6c0,0.2,0,0.3,0,0.5c0,0,0,0.1,0,0.1c0,0,0.1,0,0.1,0c0,0,0.1,0,0.1,0
			c0-0.4,0-0.9,0-1.3L23.3,29.2L23.3,29.2z"/>
	</g>
</g>
</svg>
